<svg width="20" height="20" viewBox="0 0 20 20" fill="none" xmlns="http://www.w3.org/2000/svg">
<g id="accessibility_new">
<mask id="mask0_8859_1707" style="mask-type:alpha" maskUnits="userSpaceOnUse" x="0" y="0" width="20" height="20">
<rect id="Bounding box" width="20" height="20" fill="#D9D9D9"/>
</mask>
<g mask="url(#mask0_8859_1707)">
<path id="accessibility_new_2" d="M10 4.99984C9.54167 4.99984 9.14931 4.83664 8.82292 4.51025C8.49653 4.18387 8.33333 3.7915 8.33333 3.33317C8.33333 2.87484 8.49653 2.48248 8.82292 2.15609C9.14931 1.8297 9.54167 1.6665 10 1.6665C10.4583 1.6665 10.8507 1.8297 11.1771 2.15609C11.5035 2.48248 11.6667 2.87484 11.6667 3.33317C11.6667 3.7915 11.5035 4.18387 11.1771 4.51025C10.8507 4.83664 10.4583 4.99984 10 4.99984ZM7.5 18.3332V7.49984C6.66667 7.43039 5.81944 7.32623 4.95833 7.18734C4.09722 7.04845 3.27778 6.87484 2.5 6.6665L2.91667 4.99984C4 5.2915 5.15278 5.50331 6.375 5.63525C7.59722 5.7672 8.80556 5.83317 10 5.83317C11.1944 5.83317 12.4028 5.7672 13.625 5.63525C14.8472 5.50331 16 5.2915 17.0833 4.99984L17.5 6.6665C16.7222 6.87484 15.9028 7.04845 15.0417 7.18734C14.1806 7.32623 13.3333 7.43039 12.5 7.49984V18.3332H10.8333V13.3332H9.16667V18.3332H7.5Z" fill="white"/>
</g>
</g>
</svg>
