<svg width="40" height="40" viewBox="0 0 40 40" fill="none" xmlns="http://www.w3.org/2000/svg">
<path d="M16.1305 7.64014L4.90123 26.3865C4.66971 26.7874 4.54721 27.242 4.54591 27.705C4.54461 28.168 4.66457 28.6232 4.89384 29.0254C5.12311 29.4277 5.45371 29.7629 5.85274 29.9977C6.25177 30.2325 6.70533 30.3587 7.16829 30.3638H29.6268C30.0897 30.3587 30.5433 30.2325 30.9423 29.9977C31.3413 29.7629 31.6719 29.4277 31.9012 29.0254C32.1305 28.6232 32.2504 28.168 32.2491 27.705C32.2479 27.242 32.1254 26.7874 31.8938 26.3865L20.6646 7.64014C20.4282 7.25051 20.0955 6.92836 19.6984 6.70479C19.3013 6.48122 18.8532 6.36377 18.3975 6.36377C17.9418 6.36377 17.4938 6.48122 17.0967 6.70479C16.6996 6.92836 16.3668 7.25051 16.1305 7.64014Z" stroke="black" stroke-width="1.81818" stroke-linecap="round" stroke-linejoin="round"/>
<path d="M18 14V22" stroke="black" stroke-width="1.81818" stroke-linecap="round" stroke-linejoin="round"/>
<path d="M18 26.3335H18.01" stroke="black" stroke-width="1.81818" stroke-linecap="round" stroke-linejoin="round"/>
</svg>
