<svg xmlns="http://www.w3.org/2000/svg" width="8" height="12" viewBox="0 0 8 12" fill="none">
  <path d="M4.7248 5.99999L0.824805 2.09999C0.641471 1.91665 0.549805 1.68332 0.549805 1.39999C0.549805 1.11665 0.641471 0.883321 0.824805 0.699988C1.00814 0.516654 1.24147 0.424988 1.5248 0.424988C1.80814 0.424988 2.04147 0.516654 2.2248 0.699988L6.8248 5.29999C6.9248 5.39999 6.99564 5.50832 7.0373 5.62499C7.07897 5.74165 7.0998 5.86665 7.0998 5.99999C7.0998 6.13332 7.07897 6.25832 7.0373 6.37499C6.99564 6.49165 6.9248 6.59999 6.8248 6.69999L2.2248 11.3C2.04147 11.4833 1.80814 11.575 1.5248 11.575C1.24147 11.575 1.00814 11.4833 0.824805 11.3C0.641471 11.1167 0.549805 10.8833 0.549805 10.6C0.549805 10.3167 0.641471 10.0833 0.824805 9.89999L4.7248 5.99999Z" fill="#1C2E5B"/>
</svg>