<svg width="7" height="12" viewBox="0 0 7 12" fill="none" xmlns="http://www.w3.org/2000/svg">
<path id="chevron_right" d="M4.3498 5.9998L0.449805 2.0998C0.266471 1.91647 0.174805 1.68314 0.174805 1.3998C0.174805 1.11647 0.266471 0.883138 0.449805 0.699805C0.633138 0.516471 0.866471 0.424805 1.1498 0.424805C1.43314 0.424805 1.66647 0.516471 1.8498 0.699805L6.4498 5.2998C6.5498 5.3998 6.62064 5.50814 6.6623 5.6248C6.70397 5.74147 6.7248 5.86647 6.7248 5.9998C6.7248 6.13314 6.70397 6.25814 6.6623 6.3748C6.62064 6.49147 6.5498 6.5998 6.4498 6.6998L1.8498 11.2998C1.66647 11.4831 1.43314 11.5748 1.1498 11.5748C0.866471 11.5748 0.633138 11.4831 0.449805 11.2998C0.266471 11.1165 0.174805 10.8831 0.174805 10.5998C0.174805 10.3165 0.266471 10.0831 0.449805 9.89981L4.3498 5.9998Z" fill="white"/>
</svg>
