<svg width="20" height="12" viewBox="0 0 20 12" fill="none" xmlns="http://www.w3.org/2000/svg">
<path d="M10.0001 11.6129C9.81484 11.6129 9.64359 11.5829 9.48637 11.5229C9.32887 11.4626 9.17609 11.3585 9.02804 11.2104L0.972201 3.15456C0.703868 2.88623 0.567341 2.56456 0.562618 2.18956C0.557896 1.81456 0.694423 1.48817 0.972201 1.2104C1.24081 0.941785 1.56498 0.807481 1.9447 0.807481C2.32415 0.807481 2.64817 0.941785 2.91679 1.2104L10.0001 8.27956L17.0835 1.2104C17.3521 0.941785 17.6739 0.80512 18.0489 0.800398C18.4239 0.795954 18.7503 0.932619 19.028 1.2104C19.2964 1.47873 19.4305 1.80276 19.4305 2.18248C19.4305 2.5622 19.2964 2.88623 19.028 3.15456L10.9722 11.2104C10.8241 11.3585 10.6714 11.4626 10.5139 11.5229C10.3566 11.5829 10.1854 11.6129 10.0001 11.6129Z" fill="#1C2E5B"/>
</svg>
