<svg width="24" height="24" viewBox="0 0 24 24" fill="none" xmlns="http://www.w3.org/2000/svg">
<g id="step">
<mask id="mask0_6873_10258" style="mask-type:alpha" maskUnits="userSpaceOnUse" x="0" y="0" width="24" height="24">
<rect id="Bounding box" width="24" height="24" fill="#D9D9D9"/>
</mask>
<g mask="url(#mask0_6873_10258)">
<path id="step_2" d="M19 15C18.15 15 17.4375 14.7125 16.8625 14.1375C16.2875 13.5625 16 12.85 16 12C16 11.15 16.2875 10.4375 16.8625 9.8625C17.4375 9.2875 18.15 9 19 9C19.85 9 20.5625 9.2875 21.1375 9.8625C21.7125 10.4375 22 11.15 22 12C22 12.85 21.7125 13.5625 21.1375 14.1375C20.5625 14.7125 19.85 15 19 15ZM9 17L7.6 15.575L10.175 13H2V11H10.175L7.6 8.4L9 7L14 12L9 17Z" fill="#334731"/>
</g>
</g>
</svg>
