<svg width="24" height="24" viewBox="0 0 24 24" fill="none" xmlns="http://www.w3.org/2000/svg">
<g id="step">
<mask id="mask0_6873_10266" style="mask-type:alpha" maskUnits="userSpaceOnUse" x="0" y="0" width="24" height="24">
<rect id="Bounding box" width="24" height="24" fill="#D9D9D9"/>
</mask>
<g mask="url(#mask0_6873_10266)">
<path id="step_2" d="M5 9C5.85 9 6.5625 9.2875 7.1375 9.8625C7.7125 10.4375 8 11.15 8 12C8 12.85 7.7125 13.5625 7.1375 14.1375C6.5625 14.7125 5.85 15 5 15C4.15 15 3.4375 14.7125 2.8625 14.1375C2.2875 13.5625 2 12.85 2 12C2 11.15 2.2875 10.4375 2.8625 9.8625C3.4375 9.2875 4.15 9 5 9ZM15 7L16.4 8.425L13.825 11L22 11L22 13L13.825 13L16.4 15.6L15 17L10 12L15 7Z" fill="#334731"/>
</g>
</g>
</svg>
