<svg width="1440" height="47" viewBox="0 0 1440 47" fill="none" xmlns="http://www.w3.org/2000/svg">
<path d="M0.000114441 27.329C0.000114441 27.329 45.5943 35.8103 53.4688 35.8103C61.3435 35.8103 98.4667 31.0984 129.965 27.329C161.463 23.5594 204.211 21.2035 204.211 21.2035C204.211 21.2035 242.459 6.12545 255.959 6.12545C269.458 6.12545 307.706 17.9052 313.331 19.3187C318.956 20.7323 334.705 21.6747 334.705 21.6747L351.579 20.2611C351.579 20.2611 394.327 23.5594 415.701 23.0882C437.075 22.6171 452.824 21.6747 456.199 21.6747C459.574 21.6747 483.197 22.1459 483.197 22.1459L576.568 3.76953H604.691C604.691 3.76953 630.565 0 633.94 0C637.315 0 680.062 14.5679 680.062 14.5679H720L738.56 16.4916L756.559 23.5594L786.932 26.3865L843.179 31.5696C843.179 31.5696 911.801 32.9832 944.424 27.8001C977.048 22.6171 995.047 20.7323 995.047 20.7323L1019.8 19.3187L1038.92 15.8729L1062.54 18.3764L1101.92 22.6171C1101.92 22.6171 1181.79 37.2239 1187.41 35.3392C1193.04 33.4544 1259.41 28.7425 1259.41 28.7425L1306.66 22.1459L1339.28 17.7535L1397.78 23.5595L1440 27.329V47H0L0.000114441 27.329Z" fill="#FFFBEF"/>
</svg>
