<svg width="11" height="20" viewBox="0 0 11 20" fill="none" xmlns="http://www.w3.org/2000/svg">
<path id="stat_minus_1" d="M10.8126 9.99646C10.8126 10.1817 10.7826 10.353 10.7226 10.5102C10.6623 10.6677 10.5582 10.8205 10.4101 10.9685L2.35427 19.0244C2.08594 19.2927 1.76427 19.4292 1.38927 19.434C1.01427 19.4387 0.687881 19.3022 0.410104 19.0244C0.141492 18.7558 0.00718761 18.4316 0.00718761 18.0519C0.00718761 17.6724 0.141492 17.3484 0.410104 17.0798L7.47927 9.99646L0.410104 2.91313C0.141492 2.64452 0.00482721 2.32271 0.000104988 1.94771C-0.00433946 1.57271 0.132326 1.24633 0.410104 0.968548C0.678437 0.700214 1.00247 0.566046 1.38219 0.566046C1.76191 0.566046 2.08594 0.700214 2.35427 0.968548L10.4101 9.02438C10.5582 9.17244 10.6623 9.32521 10.7226 9.48271C10.7826 9.63994 10.8126 9.81119 10.8126 9.99646Z" fill="#1C2E5B"/>
</svg>
