<svg width="26" height="27" viewBox="0 0 26 27" fill="none" xmlns="http://www.w3.org/2000/svg">
<path id="call" d="M24.4833 26.0557C21.4741 26.0557 18.5009 25.3996 15.5639 24.0876C12.6269 22.7756 9.95463 20.9158 7.54722 18.5084C5.13981 16.101 3.28009 13.4288 1.96806 10.4918C0.656019 7.55474 0 4.58159 0 1.57233C0 1.139 0.144444 0.777886 0.433333 0.488997C0.722222 0.200109 1.08333 0.0556641 1.51667 0.0556641H7.36667C7.7037 0.0556641 8.00463 0.170016 8.26944 0.39872C8.53426 0.627423 8.69074 0.898257 8.73889 1.21122L9.67778 6.26678C9.72593 6.65196 9.71389 6.97696 9.64167 7.24178C9.56944 7.50659 9.43704 7.73529 9.24444 7.92789L5.74167 11.4668C6.22315 12.3575 6.79491 13.2182 7.45694 14.0487C8.11898 14.8793 8.84722 15.6797 9.64167 16.4501C10.388 17.1964 11.1704 17.8885 11.9889 18.5265C12.8074 19.1645 13.6741 19.7483 14.5889 20.2779L17.9833 16.8834C18.2 16.6668 18.4829 16.5043 18.8319 16.3959C19.181 16.2876 19.5241 16.2575 19.8611 16.3057L24.8444 17.3168C25.1815 17.4131 25.4583 17.5876 25.675 17.8404C25.8917 18.0932 26 18.376 26 18.689V24.539C26 24.9723 25.8556 25.3334 25.5667 25.6223C25.2778 25.9112 24.9167 26.0557 24.4833 26.0557Z" fill="#FFA800"/>
</svg>
