<svg width="24" height="25" viewBox="0 0 24 25" fill="none" xmlns="http://www.w3.org/2000/svg">
<g id="Facebook_official_page" clip-path="url(#clip0_6893_11837)">
<g id="Logo">
<path id="Initiator" d="M24 12.0557C24 5.4283 18.6274 0.0556641 12 0.0556641C5.37264 0.0556641 0 5.4283 0 12.0557C0 17.6832 3.87456 22.4054 9.10128 23.7024V15.7229H6.62688V12.0557H9.10128V10.4755C9.10128 6.39118 10.9498 4.49806 14.9597 4.49806C15.72 4.49806 17.0318 4.64734 17.5685 4.79614V8.12014C17.2853 8.09038 16.7933 8.0755 16.1822 8.0755C14.2147 8.0755 13.4544 8.82094 13.4544 10.7587V12.0557H17.3741L16.7006 15.7229H13.4544V23.9678C19.3963 23.2502 24.0005 18.191 24.0005 12.0557H24Z" fill="#FFA800"/>
</g>
</g>
<defs>
<clipPath id="clip0_6893_11837">
<rect width="24" height="24" fill="white" transform="translate(0 0.0556641)"/>
</clipPath>
</defs>
</svg>
