<svg width="180" height="9" viewBox="0 0 180 9" fill="none" xmlns="http://www.w3.org/2000/svg">
<g id="Layer_1" clip-path="url(#clip0_6893_11705)">
<path id="Vector" fill-rule="evenodd" clip-rule="evenodd" d="M0.848447 4.46588C0.682227 4.50541 0.529744 4.58901 0.407029 4.70789C0.198815 4.75212 0.18701 4.58689 0 4.61164C0.0583031 4.24361 0.337917 3.79234 0.140264 3.44384C0.315017 3.27761 0.478017 3.09945 0.628105 2.91064C0.779363 3.18373 1.15064 3.39962 1.0232 3.68443C1.33732 3.50757 1.43022 3.0888 1.87156 3.05629C1.94056 3.53226 1.53483 4.07844 1.69665 4.66238C1.42066 4.71082 1.15143 4.79203 0.894681 4.90426C0.767542 4.90412 0.767538 4.52309 0.848447 4.46588Z" fill="#507796"/>
<path id="Vector_2" fill-rule="evenodd" clip-rule="evenodd" d="M76.7949 7.2346C76.8758 6.99921 76.8984 6.58696 77.2828 6.75214C77.2224 6.92602 77.1756 7.10426 77.1425 7.28531C77.0848 7.3056 77.023 7.31159 76.9625 7.30275C76.9019 7.29392 76.8444 7.27054 76.7949 7.2346Z" fill="#F7F7F7"/>
<path id="Vector_3" fill-rule="evenodd" clip-rule="evenodd" d="M80.3965 5.4375C80.6059 5.51423 80.5821 5.75481 80.6165 5.91996C80.4655 5.85104 80.4084 5.66637 80.3965 5.4375Z" fill="#F7F7F7"/>
<path id="Vector_4" fill-rule="evenodd" clip-rule="evenodd" d="M135.205 7.5272C135.241 7.40133 135.257 7.27048 135.251 7.13965C135.356 7.17738 135.415 7.5649 135.205 7.5272Z" fill="#F7F7F7"/>
<path id="Vector_5" fill-rule="evenodd" clip-rule="evenodd" d="M137.518 4.466C137.506 4.32024 137.831 4.29433 137.738 4.22542C137.82 4.07196 137.901 4.33336 137.959 4.36457C138.121 4.39576 138.075 4.19291 138.226 4.22542C138.203 4.4855 137.935 4.49202 138.006 4.85352C137.68 4.82754 137.704 4.52972 137.518 4.466Z" fill="#F7F7F7"/>
<path id="Vector_6" fill-rule="evenodd" clip-rule="evenodd" d="M152.193 4.02766V3.8313C152.321 3.91323 152.46 3.76758 152.413 4.07837C152.384 4.05251 152.348 4.03436 152.31 4.02552C152.271 4.01667 152.231 4.01741 152.193 4.02766Z" fill="#F7F7F7"/>
<path id="Vector_7" fill-rule="evenodd" clip-rule="evenodd" d="M161.186 5.14611C161.117 5.14611 161.082 4.78329 161.233 4.8535C161.256 5.00567 161.186 5.03176 161.186 5.14611Z" fill="#F7F7F7"/>
<path id="Vector_8" fill-rule="evenodd" clip-rule="evenodd" d="M163.941 5.14624C163.987 5.14624 163.975 5.20867 163.987 5.24766C164.022 5.25418 164.022 5.22165 164.034 5.19695C164.138 5.20215 164.046 5.3621 164.034 5.38671C163.929 5.3803 163.929 5.26587 163.941 5.14624Z" fill="#F7F7F7"/>
<path id="Vector_9" fill-rule="evenodd" clip-rule="evenodd" d="M171.9 3.10693C171.749 3.50097 172.307 3.28512 171.9 3.10693V3.10693Z" fill="#F7F7F7"/>
<path id="Vector_10" fill-rule="evenodd" clip-rule="evenodd" d="M179.198 1.64664C179.139 1.8183 178.942 1.84951 178.849 1.98347C178.373 1.67917 178.093 2.17323 177.559 2.0849C177.408 2.05888 177.164 1.86901 177.059 2.13561C177.051 2.13806 177.042 2.13867 177.033 2.1374C177.024 2.13613 177.015 2.133 177.008 2.12822C177 2.12344 176.994 2.11712 176.989 2.10966C176.983 2.10219 176.98 2.09376 176.979 2.0849C176.979 1.83131 177.386 1.79231 177.64 1.74157C178.176 1.63365 178.744 1.39956 179.198 1.64664Z" fill="#F7F7F7"/>
<path id="Vector_11" fill-rule="evenodd" clip-rule="evenodd" d="M99.8821 5.10065C99.8 4.84706 99.5335 4.78988 99.568 4.41531C99.3943 4.32037 98.8707 4.45302 98.7196 4.32038C98.6041 4.3841 98.6268 4.60518 98.4996 4.66239C98.3247 4.65719 98.2663 4.52975 98.2319 4.3646C97.2562 4.49724 96.396 4.26314 95.6059 4.46602C95.5031 4.44811 95.409 4.3969 95.3382 4.32027C95.0836 4.52312 94.7695 4.66879 94.7231 5.10054C94.5946 4.80924 94.4553 4.83394 94.3625 4.51014C94.2504 4.5638 94.1574 4.65047 94.096 4.7585C93.9794 4.75201 94.0484 4.54913 93.8747 4.61156C93.8866 4.96138 93.5499 4.93536 93.5142 5.24748C93.4856 4.98774 93.4856 4.72565 93.5142 4.46591C93.3404 4.38918 93.4214 4.59336 93.3404 4.61167C92.9335 4.37109 92.7479 4.61167 92.3993 4.66239C92.2482 4.52323 91.8293 4.07847 91.6902 4.51025C91.6349 4.29479 91.5609 4.0846 91.4688 3.88211C91.2832 3.88211 91.2951 4.11101 91.1559 3.93282C91.0314 4.19538 90.9414 4.47295 90.8882 4.75861C90.6682 4.53623 90.9346 4.27615 90.7145 3.97705C90.6324 3.98356 90.6787 4.14219 90.586 4.12281C90.5753 4.26326 90.7145 4.23724 90.7145 4.36482C90.6966 4.45001 90.654 4.52803 90.592 4.5891C90.5299 4.65017 90.4513 4.69157 90.3658 4.70812C90.2266 4.41553 90.3658 4.12943 90.2731 3.83162C89.9681 3.84032 89.6644 3.79043 89.3782 3.68468C89.2962 3.66647 89.157 3.81861 89.2498 3.83162C89.157 3.97738 89.088 3.69117 88.9833 3.68468C86.9379 3.67945 85.4268 3.92004 83.6373 3.97727C83.6092 3.9886 83.5858 4.00926 83.571 4.0358C83.5563 4.06234 83.5511 4.09314 83.5564 4.12303C83.1733 4.00989 82.6962 3.89545 82.4415 4.22577C82.0929 4.0788 82.0001 4.2882 81.6396 4.3207C81.5678 4.56046 81.5094 4.80403 81.4647 5.05027C81.36 5.08926 81.2208 5.07625 81.1982 5.19721C81.0351 4.98132 80.9542 4.68221 80.6627 4.612C80.4187 4.73301 80.4544 5.08926 80.4771 5.38708C80.3962 5.38056 80.4544 5.22842 80.3498 5.24792C80.2339 5.43999 80.1586 5.65376 80.1285 5.87605C79.9893 5.70439 79.919 5.45729 79.7692 5.29214C79.5943 5.41829 79.3848 5.52101 79.3264 5.78112C79.1527 5.55222 78.9432 5.66666 78.7922 5.43779C78.5602 5.74339 78.3162 5.73037 77.9902 5.82531C78.026 5.61594 77.9093 5.55874 77.8165 5.4885C77.6071 5.59644 77.3394 6.16229 77.1074 5.78112C77.1573 5.99024 77.1411 6.20971 77.061 6.40922C76.8872 6.3078 76.7944 6.11793 76.6539 6.21946C76.4612 5.93355 76.3675 5.59228 76.3874 5.24803C76.341 5.25455 76.3053 5.23502 76.3053 5.19732C76.0507 5.1713 76.1316 5.50162 75.852 5.4379C75.6165 5.85057 75.4368 6.29269 75.3177 6.75266C75.3596 6.83931 75.3744 6.93662 75.3599 7.03178C75.3455 7.12695 75.3026 7.21551 75.2368 7.28583C74.8763 6.9048 75.4568 6.3339 75.0155 5.92036C74.9691 6.30791 74.6443 6.48606 74.6562 6.8476C74.6562 7.04396 74.8762 7.15836 74.8299 7.43148C74.7026 7.38728 74.5742 7.25462 74.5634 7.52773C74.423 7.57193 74.505 7.36908 74.4349 7.33654C74.3183 7.36908 74.1565 7.35607 74.0744 7.43148C73.9696 7.41327 74.0637 7.1909 74.028 7.08947C73.947 7.00625 73.7495 7.04396 73.6793 6.94253C73.4593 7.02575 73.5056 7.41979 73.32 7.52773C73.2498 7.48871 73.2617 7.36908 73.226 7.28572C72.9595 7.40673 72.7846 7.64077 72.4252 7.67327C72.4133 7.39366 72.0873 7.40018 71.8898 7.43126C71.8898 7.2349 71.7743 7.15297 71.7625 6.94231C71.5412 6.89157 71.3794 6.72642 71.1819 6.89809C70.9142 6.72642 70.8915 6.56128 70.5191 6.55605C70.3335 6.79666 70.205 7.08925 69.9385 7.2349C69.8564 7.13347 69.9027 6.91759 69.9385 6.79666C69.5661 6.89157 69.4971 7.32334 69.2293 7.52751C69.0901 7.38706 68.8926 7.31163 68.8223 7.08925C68.6712 7.05674 68.764 7.28561 68.6023 7.23501C68.4976 7.13358 68.4976 6.90469 68.4274 6.75255C68.1609 6.94231 68.1252 7.26102 68.0204 7.52762C67.9169 7.52111 67.9395 7.36897 67.9395 7.23501C67.2767 7.5081 67.2078 6.9177 66.5569 7.04384C66.545 6.89168 66.5915 6.68883 66.5105 6.6069C66.3713 6.56139 66.3713 6.67582 66.3356 6.75266C66.1845 6.70844 66.313 6.65773 66.2892 6.50427C66.138 6.48606 66.1845 6.67593 66.0227 6.65121C65.6537 6.40078 65.2694 6.17363 64.8721 5.9711C64.7329 5.97759 64.8138 6.19996 64.7329 6.26368C64.6163 6.21946 64.4771 6.18695 64.4188 6.3144C64.2677 6.20645 64.1285 6.08553 63.9773 5.9711C63.6916 5.96551 63.4063 5.99788 63.129 6.06735C62.3972 7.18443 61.9904 8.64485 60.2829 8.69556C60.4342 8.49268 60.2353 8.35875 60.1079 8.30803C60.1425 8.15587 60.2829 8.10516 60.2829 7.92048C60.3055 7.76835 60.0616 7.90228 60.1079 7.72412C59.8177 7.90228 59.713 8.30151 59.3989 8.45368C59.3525 8.23779 59.5036 8.09864 59.3989 7.966C59.0859 8.07394 58.842 7.9465 58.5041 8.16236C58.3066 7.83856 58.2841 7.3743 57.7498 7.33657V7.14021C57.5403 7.13372 57.3892 7.19744 57.3427 7.38079C57.1797 7.24166 57.1107 6.98807 56.8192 6.99327C56.843 6.84751 56.7728 6.81641 56.7728 6.70198C56.5872 6.69546 56.4944 6.79039 56.5063 6.99327C56.4197 6.91253 56.3097 6.86147 56.1922 6.84751C55.9693 7.17108 55.6589 7.42456 55.2974 7.57837C55.1927 7.33635 55.3438 7.07638 55.2165 6.89822C54.7751 7.03867 54.7632 7.54586 54.3681 7.62908C54.3098 7.56536 54.3443 7.40021 54.2753 7.33646C54.1004 7.33646 54.0659 7.48863 53.9267 7.52765C53.975 7.41031 53.9959 7.2835 53.9879 7.15687C53.9798 7.03023 53.9431 6.90709 53.8803 6.7968C53.6126 6.97496 53.5317 6.76559 53.264 6.70187C53.0903 6.76559 53.032 6.94894 52.9035 7.04387C52.7642 7.07638 52.7416 6.99316 52.6369 6.99316C52.5203 7.03868 52.5905 7.26625 52.4156 7.23517C52.1716 7.08942 52.2764 6.81644 52.1491 6.50432C51.5792 6.54335 51.44 6.35216 50.9866 6.40939C50.8938 6.35867 50.8819 6.23123 50.8129 6.16881C50.7427 6.35857 50.5452 6.39118 50.4988 6.60707C50.4286 6.56155 50.406 6.48606 50.406 6.35867C50.2311 6.32746 50.3013 6.56804 50.1383 6.55633C50.162 6.44841 50.243 6.29506 50.1038 6.26374C49.4529 6.68899 49.1507 7.50826 48.4069 7.81909C48.4069 7.62933 48.4997 7.52779 48.4997 7.3366C48.0583 7.53299 47.9893 8.14289 47.3849 8.16238C47.3491 8.06096 47.2456 8.01663 47.2456 7.8698C47.1291 7.93352 47.1291 8.12468 46.9434 8.11167C46.9972 7.8398 47.0088 7.56129 46.9779 7.28589C46.5484 7.19747 46.6055 7.66043 46.3151 7.72415C46.2721 7.64943 46.2558 7.56229 46.2687 7.47705C46.095 7.5018 46.1176 7.53299 46.0022 7.43153C45.6881 7.80088 45.305 7.40035 45.1182 7.19095C44.9878 7.23182 44.866 7.29613 44.7588 7.38071C44.6077 7.33649 44.735 7.29229 44.7124 7.14013C44.4792 7.06992 44.4792 7.27277 44.3174 7.28589C43.9331 7.26639 43.8867 6.88016 43.469 6.89836C43.3298 6.92438 43.3406 7.11422 43.1085 7.04412C43.0502 6.88027 43.0621 6.64488 42.8872 6.60718C42.7598 6.60718 42.7016 6.69559 42.6672 6.79694C42.5387 6.64477 42.2948 6.77219 42.2258 6.75272C42.133 6.702 42.133 6.44195 41.958 6.35867C41.8188 6.30796 41.8534 6.4354 41.7724 6.4601C41.5868 6.32746 41.4 6.18701 41.2025 6.06738C41.0288 6.06738 41.005 6.24424 40.8896 6.31445C40.7582 6.17959 40.583 6.09596 40.3954 6.07856C40.2079 6.06116 40.0203 6.11113 39.8663 6.21952C39.4019 6.06905 38.9018 6.06905 38.4373 6.21952C37.7175 5.98413 37.0893 6.25073 36.2183 6.11809C36.16 6.16881 36.16 6.28324 36.0791 6.31445C35.9625 6.30796 35.9625 6.1558 35.8578 6.11809C35.8113 6.14931 35.8113 6.23123 35.7304 6.21952C34.6783 6.09158 33.6128 6.12359 32.5702 6.31445C32.4298 6.35216 32.4762 6.18701 32.3953 6.1687C32.2441 6.12318 32.3251 6.32735 32.2561 6.35845C32.1514 6.06716 31.6517 6.28822 31.4078 6.06716C31.1865 6.12307 31.1055 6.31423 30.9199 6.40917C30.9419 6.31096 30.9297 6.2082 30.8854 6.11787C30.3155 6.47289 29.8621 5.98391 29.3624 6.40917C29.3041 6.30122 29.1887 6.25051 29.2351 6.02164C29.0495 6.1803 28.8044 6.14909 28.5605 6.31423C28.4796 6.28302 28.2357 5.90721 28.2119 6.26352C28.0845 6.25051 28.0845 6.11135 27.9919 6.06716C27.341 6.59384 26.7247 5.9527 26.2487 6.55611C26.0857 6.1803 25.6098 6.20629 25.1446 6.31423V6.11787C24.8423 6.35845 24.6103 6.11787 24.2034 6.2193C23.9368 6.28302 23.8084 6.66925 23.5882 6.70178C23.4717 6.71476 23.3325 6.53012 23.1004 6.45977C22.9029 6.40257 22.7625 6.50399 22.7399 6.26341C22.613 6.35232 22.4925 6.45009 22.3794 6.556C22.1594 6.32713 21.8214 6.61193 21.5429 6.35834C21.368 6.43507 21.3216 6.65093 21.1824 6.75238C21.2407 6.50399 21.0432 6.54302 21.0087 6.40906C20.334 6.45977 19.8117 6.32713 19.312 6.65107C18.9169 6.59387 18.7313 6.81624 18.4636 6.45991C18.2542 6.66928 17.8711 6.25054 17.7545 6.65107C17.4522 6.42869 16.9643 6.6888 16.7324 6.35848C16.6741 6.37798 16.6979 6.48592 16.686 6.55614C16.5656 6.49241 16.4284 6.46734 16.2932 6.48432C16.1581 6.50131 16.0314 6.55953 15.9305 6.65107C15.8031 6.63157 15.8257 6.4417 15.7104 6.40906C15.2797 6.54951 15.0239 6.2699 14.8621 6.70167C14.3345 6.59555 13.7946 6.5636 13.2582 6.60674C13.119 6.65093 13.1773 6.4793 13.0845 6.45977C12.9679 6.50399 12.9798 6.69515 12.8632 6.75238C12.6656 6.70167 12.6192 6.50399 12.549 6.31412C12.48 6.48579 12.3408 6.32713 12.3753 6.11776C12.0147 6.1932 11.9458 6.04103 11.5734 6.11776C11.5389 6.05901 11.5207 5.99212 11.5207 5.92399C11.5207 5.85585 11.5389 5.78896 11.5734 5.73021C11.3534 5.69771 11.1902 5.46364 11.0391 5.6353C11.0153 5.53256 10.9225 5.48834 10.9463 5.34269C10.7488 5.55206 10.7024 5.36219 10.4109 5.48845C10.3544 5.39811 10.3115 5.29996 10.2836 5.19715C10.1039 5.17547 9.92171 5.19277 9.74934 5.24786C9.72555 4.9866 9.48163 4.9866 9.38882 4.80311C9.20321 4.73939 9.24961 4.94227 9.16881 4.99947C8.92372 4.82783 8.66908 4.99298 8.50602 4.75889C8.20381 4.89155 7.82066 4.91754 7.83256 5.38702C7.5768 5.11393 7.41374 5.68613 7.07696 5.63541V5.43754C6.97962 5.46946 6.88892 5.51885 6.8093 5.5833C6.71651 5.56509 6.80929 5.32322 6.72838 5.292C6.40238 5.32322 6.33338 5.51438 6.32136 5.78098C5.77524 5.43765 5.50751 5.75496 4.98518 5.87591C4.81027 5.6158 4.49733 5.51438 4.45093 5.10084C4.35812 5.14636 4.24154 5.15804 4.22963 5.292C4.13681 5.279 4.14871 5.16456 4.10224 5.10084C3.92741 5.10084 3.92741 5.29849 3.7882 5.34285C3.62517 5.31035 3.55617 5.17119 3.42769 5.10084C3.5212 4.85136 3.56876 4.587 3.56808 4.32057C3.28847 4.4025 3.38126 4.89147 3.25396 5.14636C3.17305 5.08912 3.21944 4.89147 3.03265 4.94867C2.87083 4.91746 2.91715 5.12034 2.84702 5.19707C2.80063 5.19058 2.81253 5.10733 2.81253 5.05013C2.68401 5.06963 2.74232 5.30501 2.54481 5.24778C2.53381 5.04836 2.45635 4.85836 2.32479 4.70809C2.28441 4.73919 2.23534 4.75692 2.1844 4.75881C2.12723 4.79002 2.20818 4.88495 2.138 4.99939C1.74297 4.86026 2.2546 4.58065 2.4057 4.46622C2.48661 3.8693 2.45213 3.45056 2.76622 3.10723C2.64964 3.01881 2.67343 2.78343 2.67343 2.56754C2.56501 2.47748 2.42614 2.43253 2.28551 2.44197C2.14489 2.45142 2.01328 2.51454 1.91788 2.61828C1.76676 2.09809 2.45212 2.26324 2.84713 2.27625C2.84713 2.4154 2.76622 2.47912 2.76622 2.61828C2.85904 2.78343 3.07911 2.82113 3.1148 3.05652C3.31237 2.94858 3.48607 3.09422 3.61453 3.20228C3.95131 3.06964 3.59072 2.75232 3.74189 2.47272C3.6144 2.41439 3.47447 2.38851 3.33455 2.39736C3.19463 2.40621 3.05906 2.44953 2.93994 2.52346C2.97445 2.3843 2.88164 2.39602 2.89355 2.27636C3.42473 2.20046 3.9628 2.18519 4.49743 2.23084C5.04358 2.25686 5.65874 2.11121 6.10017 2.13591C6.75102 2.16192 7.34354 2.02796 7.97178 2.08519C8.35852 2.06667 8.74321 2.01793 9.12236 1.93944C9.41266 1.91342 9.7149 2.03437 10.0159 2.03437C10.4811 2.04086 10.9107 1.91994 11.3997 1.93944C13.1535 1.99667 15.0013 1.69756 16.8254 1.78727C17.9878 1.8497 19.1729 1.64682 20.3342 1.69102C21.5895 1.74173 22.8328 1.55189 24.0762 1.59608C24.7497 1.6221 25.3541 1.48814 25.9812 1.54537C26.563 1.6026 27.0973 1.41144 27.7243 1.45043C28.1994 1.42774 28.6729 1.37868 29.1426 1.30349C29.4555 1.29829 29.7696 1.41793 30.0718 1.40621C30.3967 1.38671 30.6882 1.22806 30.9666 1.20856C31.2807 1.19035 31.5818 1.3165 31.8613 1.30349C32.1755 1.29178 32.442 1.14484 32.7441 1.1071C32.9693 1.11172 33.1942 1.12867 33.4176 1.15785C34.1041 1.16434 34.8476 0.910744 35.7306 0.866522C38.159 0.745516 40.785 0.904254 43.4693 0.770267C45.989 0.644117 48.5134 0.644117 51.0331 0.770267C51.4519 0.796284 52.242 0.789794 52.8572 0.820981C55.332 0.941987 57.9473 0.884702 60.4686 1.01217C63.8245 1.06984 67.1809 0.92348 70.5191 0.573908C72.9357 0.408761 75.3071 0.446464 77.77 0.281291C79.1976 0.0800614 80.6397 -0.000416918 82.0808 0.040709C82.2664 0.058915 82.6734 0.0719226 82.9756 0.0914486C90.0171 0.446465 97.2679 0.0654325 104.413 0.433457C108.713 0.650719 112.907 0.593406 117.323 0.820981C121.41 1.04343 125.506 1.04343 129.594 0.820981C130.15 0.789794 130.674 0.650637 131.243 0.573908C132.551 0.535069 133.86 0.60073 135.158 0.770267C136.821 0.853514 138.54 0.694858 140.097 0.770267C148.324 1.19032 156.69 0.675333 164.695 0.573908C165.426 0.561861 166.157 0.610613 166.88 0.719664C167.66 0.597017 168.451 0.565159 169.239 0.624729C170.807 0.580506 172.526 0.580508 174.212 0.433567C174.956 0.364649 175.827 0.433567 176.664 0.433567C177.931 0.433567 178.883 0.42837 179.999 0.479082C180.033 1.14492 179.267 1.08249 178.663 1.15793C178.476 1.19563 178.697 1.06299 178.58 1.06299C178.419 1.06948 178.58 1.15141 178.441 1.20875C177.907 1.13331 177.698 1.634 177.291 1.64699C176.727 1.69665 176.161 1.71142 175.595 1.69121C175.501 1.73023 175.688 1.84337 175.688 1.9396C175.793 1.92659 176.21 1.78744 176.083 1.98382C176.396 1.98382 176.547 1.82517 176.838 1.98382C176.571 2.4923 176.083 2.17358 175.467 2.32713C175.432 2.54821 175.501 2.50399 175.42 2.7641C175.269 2.68217 175.351 2.34533 175.154 2.32713C174.154 2.50399 173.248 2.11127 172.214 2.37787C172.142 2.39137 172.074 2.41976 172.014 2.4612C171.954 2.50264 171.903 2.5562 171.865 2.61845C171.807 2.82782 172.074 2.67565 172.039 2.86032C171.957 2.92346 171.897 3.00952 171.865 3.1074C171.679 2.92405 171.76 2.46628 171.505 2.37787C171.063 2.4923 170.749 2.31412 170.39 2.56763C170.4 2.47921 170.343 2.4662 170.343 2.37787C170.203 2.39607 170.215 2.59372 170.041 2.56763C170.041 2.53096 170.033 2.49472 170.017 2.46179C170.001 2.42885 169.977 2.40012 169.948 2.37787C169.82 2.57423 169.622 2.44027 169.459 2.71338C169.425 2.62497 169.402 2.52362 169.32 2.4728C169.157 2.58074 169.03 2.53003 168.971 2.81613C168.867 2.80312 168.949 2.60547 168.925 2.52354C168.832 2.54304 168.844 2.65618 168.705 2.61848C168.647 2.85383 168.832 2.97998 168.751 3.10742C168.649 2.98298 168.598 2.82351 168.611 2.66267C167.786 2.54824 166.915 2.80312 165.938 2.61848C165.652 3.21596 165.46 3.85425 165.37 4.51058C165.16 4.48582 165.044 4.54957 165.009 4.70823C164.912 4.29026 164.928 3.85392 165.056 3.44421C165.253 3.3232 164.882 3.71078 165.056 3.88244C165.277 3.55864 165.358 3.03716 165.672 2.96172C165.672 2.82127 165.602 2.75235 165.451 2.76407C165.253 2.82127 165.23 3.08916 165.184 3.2023C165.122 3.08353 165.093 2.94991 165.102 2.81607C164.475 3.15811 163.522 2.33881 163.405 3.3936C163.302 3.51461 163.324 3.32339 163.185 3.34941C163.129 3.39725 163.083 3.45651 163.051 3.5233C163.019 3.59009 163.001 3.6629 163 3.73693C162.859 3.6602 162.837 3.74865 162.651 3.73693C162.553 3.59114 162.493 3.42301 162.476 3.24796C162.522 3.25967 162.5 3.34941 162.558 3.34941C162.674 3.27917 162.534 3.0945 162.512 3.00608C162.407 3.01909 162.581 3.0893 162.512 3.20244C162.418 3.22846 162.453 3.10751 162.383 3.10751C162.046 3.34952 162.232 3.87609 162.023 4.22591C161.791 4.06596 161.976 3.17123 161.849 2.96186C161.801 2.98437 161.76 3.01724 161.726 3.05806C161.693 3.09887 161.67 3.14659 161.657 3.19772C161.645 3.24886 161.644 3.3021 161.655 3.35355C161.666 3.405 161.688 3.45335 161.72 3.49506C161.756 3.64082 161.617 3.57698 161.535 3.58999C161.559 4.21939 161.222 4.20641 161.186 4.70837C161.024 4.32733 161.105 3.93329 160.954 3.58999C160.676 3.603 160.884 4.14918 160.652 4.22591C160.733 4.1049 160.652 3.80585 160.779 3.73693C160.698 3.61593 160.431 3.70443 160.431 3.83187C160.374 3.6602 160.35 3.45732 160.164 3.44434C159.932 3.60949 160.14 3.9463 159.896 4.07894C159.572 3.99052 159.735 3.65371 159.757 3.34941C159.653 3.19724 159.432 3.18424 159.316 3.05679C158.677 3.27917 157.492 2.97487 156.829 3.24796C156.76 3.22197 156.736 3.14524 156.736 3.05679C156.539 3.30519 156.027 2.91104 155.841 3.29867C155.749 3.28569 155.83 3.08281 155.749 3.05679C155.307 3.0945 155.04 3.20255 155.179 3.68493C155.04 3.73693 155.098 3.57698 155.086 3.49517C154.552 3.55237 154.505 4.15578 153.983 4.22602C153.878 4.23771 153.959 4.43539 153.889 4.4666C153.669 4.4289 153.925 3.86968 153.703 3.83198C153.564 3.90219 153.494 4.05435 153.401 4.17399C153.274 4.09206 153.425 3.9139 153.448 3.83198C153.332 3.82549 153.308 3.74224 153.262 3.88269C153.169 3.92691 153.332 3.6343 153.215 3.78776C153.111 3.6915 153.239 3.45743 153.262 3.34952C153.437 3.39371 153.657 3.44445 153.703 3.24807C153.599 2.96205 153.448 3.24807 153.308 3.24807C153.052 3.25326 152.855 2.97498 152.414 3.10762C152.367 3.11414 152.379 3.19086 152.379 3.24807C152.111 2.82804 151.704 3.25326 151.531 3.5901C151.414 3.60311 151.496 3.40034 151.357 3.44434C151.287 3.48854 151.287 3.603 151.263 3.68493C151.443 3.93562 151.571 4.22005 151.639 4.52123C151.707 4.82241 151.713 5.13418 151.658 5.43793C151.565 5.37421 151.46 5.22204 151.623 5.14663C151.484 5.05689 151.531 5.32349 151.309 5.19734C151.228 4.8795 151.181 4.55379 151.17 4.22591C151.132 4.19635 151.085 4.18031 151.037 4.18031C150.989 4.18031 150.942 4.19635 150.904 4.22591C150.914 4.28182 150.996 4.27013 150.996 4.22591C151.089 4.51071 150.985 5.08291 151.124 5.38721C150.961 5.45742 150.892 5.74872 150.636 5.58357C150.519 5.76173 150.636 5.90738 150.555 6.06735H150.287C149.997 5.70453 150.02 4.83452 149.439 4.94895C149.323 5.0894 149.312 5.32998 149.172 5.43793C149.068 5.44442 149.078 5.20254 149.032 5.48864C148.858 5.50165 149.056 5.10112 148.812 5.19734C148.876 5.6231 148.965 6.04473 149.079 6.46007C148.847 6.30793 148.684 6.37165 148.498 6.16878C148.417 6.5368 148.719 6.48609 148.684 6.79691C148.359 6.96192 148.405 6.54332 148.196 6.75269C147.94 6.42886 147.906 5.86967 147.569 5.63561C147.557 5.47043 147.627 5.20906 147.441 5.24805C147.278 5.66679 147.499 5.85666 147.522 6.26371C147.196 6.14928 147.045 5.84498 146.813 5.63561C146.65 5.77474 146.942 6.11806 146.686 6.11806C146.739 6.15836 146.782 6.21004 146.812 6.26925C146.842 6.32846 146.858 6.39368 146.86 6.46007C146.686 6.36514 146.616 6.14931 146.453 6.02184C146.325 6.04134 146.186 6.04783 146.152 6.16878C145.965 6.06735 145.942 5.81247 145.698 5.78125C145.698 5.64729 145.686 5.50165 145.745 5.43793C145.698 5.29217 145.709 5.61608 145.57 5.53286C145.419 5.43793 145.419 5.18433 145.396 4.94895C145.268 4.86702 145.303 5.16484 145.257 4.99966C145.152 5.14663 145.396 5.28568 145.211 5.43793C145.036 5.36771 145.024 4.86702 144.768 5.0504C144.501 4.84752 144.675 4.66285 144.373 4.46649C144.617 4.2376 144.211 3.99052 144.409 3.78765C144.316 3.60949 144.199 3.46384 144.106 3.29867C143.99 3.98403 144.234 4.25712 144.187 5.05051C144.074 5.12607 143.979 5.22669 143.911 5.3446C143.842 5.46252 143.802 5.59458 143.792 5.73062C143.746 5.53297 143.502 5.3236 143.699 5.14674C143.339 5.27289 143.548 4.42238 143.292 4.27024C143.165 4.30795 143.153 4.37167 143.212 4.51083C143.037 4.187 143.281 3.51467 143.037 3.10762C142.885 3.14012 142.932 3.38073 142.724 3.34963C142.665 3.27939 142.526 3.29889 142.583 3.10762C142.061 3.08287 141.666 3.20255 141.073 3.15184C141.003 3.48865 141.352 3.84488 141.166 4.22602C141.085 4.22602 141.073 4.1623 140.981 4.17399C140.888 4.21301 141.003 4.4861 140.898 4.51083C140.457 4.33396 140.364 3.93329 140.493 3.34952C140.725 3.31049 140.841 3.343 140.981 3.29878C140.783 3.01276 140.144 3.19086 139.83 3.20252C140.012 3.73415 140.044 4.30548 139.923 4.8541C139.703 4.84109 139.725 4.58101 139.562 4.5108C139.471 4.55855 139.368 4.57972 139.266 4.5719C139.163 4.56408 139.065 4.52759 138.982 4.46657C139.04 4.17396 138.843 4.16227 138.854 3.93338C138.941 3.90931 139.018 3.85827 139.074 3.78762C139.121 3.55875 138.959 3.40009 139.074 3.24793C138.865 3.26614 138.819 3.31036 138.621 3.24793C138.614 3.44479 138.681 3.63719 138.808 3.78762C138.645 3.81237 138.25 3.51453 138.367 3.24793C137.741 3.19699 137.111 3.23112 136.495 3.34938C136.484 3.48202 136.565 3.44432 136.495 3.54574C136.426 3.53273 136.484 3.39999 136.402 3.39358C136.146 3.40659 136.333 3.74862 136.309 3.93327C136.472 3.94627 136.379 3.67318 136.448 3.58996C136.692 3.7421 136.785 3.55223 136.983 3.54574C137.087 3.86305 136.751 4.16865 136.936 4.46646C136.867 4.57441 136.832 4.22588 136.67 4.2701C136.6 4.53668 136.368 4.61211 136.275 4.85399C136.32 5.14547 136.303 5.44323 136.225 5.72766C136.147 6.0121 136.009 6.27677 135.821 6.50427C135.741 6.43535 135.624 6.39632 135.647 6.21946C135.729 6.12972 135.856 6.06732 135.914 6.21946C136.065 5.98408 135.833 6.0283 135.821 5.92036C135.914 5.83843 135.856 5.83843 136.007 5.87616C135.938 5.50162 136.344 5.12708 136.182 4.66282C136.042 4.63807 136.146 4.8852 136.053 4.9047C135.856 4.91771 135.949 4.61868 135.741 4.66282V4.2701C135.566 4.28179 135.287 4.44174 135.066 4.22588C134.946 4.44741 134.877 4.69252 134.863 4.9438C134.849 5.19508 134.891 5.44635 134.985 5.67977C134.939 5.90735 134.705 5.93336 134.764 6.26368C134.59 6.15574 134.752 5.9711 134.717 5.73048C134.648 5.61219 134.535 5.52544 134.403 5.48847C134.31 5.05024 134.566 4.98129 134.532 4.61197C135.031 4.58722 134.624 3.83819 134.846 3.49489C134.81 3.39344 134.532 3.44418 134.497 3.49489C134.439 3.66004 134.322 3.76798 134.357 4.02806C134.102 3.89542 133.846 4.0983 133.869 3.54561C133.595 3.98231 133.443 4.48422 133.428 4.9995C133.3 4.92409 133.405 4.84736 133.335 4.75892C133.172 4.7082 133.265 4.94229 133.113 4.90467C133.161 4.73953 133.044 4.74602 132.928 4.75892C132.754 4.89158 132.859 5.06968 132.847 5.34282C132.925 5.40827 133.016 5.45778 133.113 5.48858C133.125 5.76819 132.998 6.02178 133.113 6.26366C132.892 6.30565 132.679 6.38714 132.486 6.50424C132.474 6.84105 132.708 7.07644 132.626 7.33652C132.569 7.32354 132.545 7.34303 132.533 7.38074C132.045 7.16488 132.557 6.48603 132.22 5.97107C132.069 6.0855 132.045 6.32738 131.999 6.55625C131.859 6.40281 131.755 6.51725 131.604 6.60698C131.533 6.84105 131.789 6.72662 131.731 6.9425C131.533 6.9997 131.615 6.75274 131.557 6.65118C131.348 6.60699 131.092 6.34558 130.883 6.35859C130.922 5.88487 130.879 5.40794 130.755 4.94889C130.568 5.44467 130.492 5.97589 130.535 6.50424C130.326 6.33387 130.348 5.90212 130.314 5.53281C130.419 5.43787 130.36 5.54581 130.441 5.58352C130.654 5.04292 130.745 4.46228 130.709 3.88253C130.104 4.03469 130.581 5.1908 129.953 5.38716C129.895 5.58352 130.046 5.5393 130.046 5.67975C129.872 5.76819 129.977 6.16223 129.687 6.11801C129.709 6.01007 129.78 5.86962 129.687 5.7812C129.594 5.76819 129.663 5.95284 129.64 6.02178C129.582 6.01007 129.536 5.62254 129.512 5.87602C129.419 5.78758 129.28 5.46378 129.512 5.43776C129.256 5.11396 129.419 4.54946 129.373 4.02806C128.815 4.18672 129.302 5.20238 128.978 5.58341C128.853 5.32645 128.79 5.04435 128.792 4.75892H128.571C128.583 5.27262 128.85 5.83829 128.524 6.16861C128.42 6.05418 128.478 5.99695 128.49 5.82528C128.443 5.74855 128.42 5.83829 128.304 5.78109C128.314 5.66158 128.294 5.54154 128.248 5.43108C128.201 5.32063 128.129 5.22301 128.036 5.14647C127.641 5.16467 127.804 5.7993 127.641 6.06719C127.444 5.82517 127.502 5.53916 127.2 5.48847C127.228 5.0653 127.197 4.64031 127.107 4.22574C126.666 4.48582 126.932 5.43776 126.793 5.87602C126.747 5.86302 126.769 5.78109 126.7 5.78109C126.549 5.889 126.805 5.95272 126.747 6.1179C126.712 6.16861 126.584 6.13611 126.619 6.26366C126.421 5.87613 126.259 5.45088 126.084 5.05035C125.922 5.16478 125.898 5.43138 125.817 5.63555C125.713 5.61603 125.735 5.46389 125.596 5.48858C125.631 5.74347 125.479 6.06078 125.55 6.35859C125.33 6.16223 125.318 6.40931 125.189 6.55625C125.015 6.42231 125.004 6.105 124.969 5.82539C124.794 5.83191 124.806 6.04128 124.794 6.21944C124.632 6.12318 124.562 6.29487 124.574 6.50424C124.481 6.37809 124.26 6.3911 124.214 6.21944C124.086 6.11801 123.97 6.37809 123.899 6.50424C123.633 6.31448 123.575 5.89563 123.458 5.53281C123.373 5.63312 123.31 5.74973 123.272 5.87544C123.234 6.00114 123.223 6.13327 123.238 6.26366C123.149 6.12018 123.025 6.00194 122.877 5.92033C122.714 5.89558 122.75 6.0725 122.61 6.0673C122.726 5.86313 122.529 5.32993 122.122 5.38716C122.054 5.09956 121.948 4.822 121.809 4.56137C121.708 4.64237 121.63 4.74842 121.583 4.86891C121.536 4.98941 121.522 5.12013 121.541 5.248C121.46 5.17779 121.263 5.06333 121.274 5.29222C120.995 5.24151 121.122 4.86045 121.32 4.94889C121.053 4.89818 120.995 4.72003 120.612 4.70831C120.472 4.93069 120.495 5.32984 120.252 5.43787C120.221 5.18885 120.162 4.9441 120.077 4.70831C120.012 4.73495 119.942 4.74475 119.873 4.73679C119.804 4.72883 119.738 4.70336 119.682 4.6628C119.554 4.73506 119.449 4.84074 119.378 4.96842C119.306 5.09609 119.271 5.2409 119.276 5.38716C119.101 5.32344 119.043 5.41317 118.915 5.34294C118.927 5.11407 119.055 5.02562 119.008 4.75902C118.52 4.4092 118.335 5.03863 118.206 5.48858C118.113 5.4951 118.184 5.31043 118.16 5.248C118.079 5.29222 118.091 5.45737 117.94 5.43776C117.858 5.27261 118.009 5.01902 118.033 4.80314C118.024 4.77373 118.005 4.74824 117.98 4.73095C117.954 4.71367 117.924 4.70563 117.893 4.7082C117.696 4.7082 117.823 5.07623 117.672 5.14647C117.579 5.10095 117.66 4.87337 117.545 4.85385C117.312 4.81614 117.358 5.06974 117.102 4.99961C116.858 5.17127 117.068 5.84492 116.696 5.87613C116.509 5.50808 116.604 5.12056 116.475 4.70831C116.266 4.84721 116.11 5.05313 116.034 5.29222C115.963 5.17779 115.941 5.20248 115.802 5.248C115.802 5.09454 115.906 5.05035 115.941 4.94889C115.941 4.85396 115.824 4.89169 115.848 4.75913C115.638 4.75913 115.558 4.8918 115.58 5.14669C115.429 5.19091 115.314 5.00624 115.266 5.1974C115.244 4.86708 114.953 5.06344 114.871 4.75913C114.732 4.77085 114.802 4.99972 114.605 4.94889C114.593 4.87349 114.651 4.86697 114.651 4.80314C113.3 4.72308 111.946 4.72308 110.596 4.80314C110.387 4.85385 110.155 4.71992 109.98 4.75892C109.724 4.80966 109.399 4.57427 108.818 4.66266C108.69 4.66266 108.667 4.78367 108.551 4.80311C108.411 4.84733 108.458 4.6821 108.376 4.66266C108.028 4.57424 107.783 4.95527 107.668 4.70817C107.609 4.71989 107.621 4.79662 107.621 4.85393C107.482 4.85393 107.563 4.62507 107.482 4.56134C106.578 4.59301 105.673 4.56129 104.774 4.46641C104.508 4.4534 104.24 4.56783 103.972 4.56134C103.043 4.54314 101.87 4.12957 101.126 4.80322C101.033 4.53013 100.51 4.84744 100.638 4.70828C100.312 4.56753 100.195 5.063 99.8821 5.10065ZM4.41534 2.42179C4.32255 2.44654 4.13692 2.35806 4.18334 2.52324C4.22974 2.57395 4.41534 2.56743 4.41534 2.42179ZM128.977 4.56104C128.861 4.54933 128.826 4.63125 128.838 4.7587C128.953 4.77041 128.989 4.68848 128.977 4.56104ZM136.228 4.46611C136.263 4.43489 136.321 4.19302 136.228 4.17349C136.228 4.30093 136.041 4.40239 136.228 4.46611ZM150.462 5.29189C150.44 5.02063 150.329 4.76408 150.148 4.56104C150.078 4.57405 150.043 4.64426 150.067 4.7587C150.345 4.76513 150.206 5.25419 150.462 5.29189ZM150.857 4.12278C151.147 3.98365 151.24 3.40623 150.857 3.29828C150.904 3.64681 150.775 3.8627 150.857 4.12278ZM154.11 3.64032C154.017 3.6286 154.086 3.81198 154.064 3.8822C154.203 3.95243 154.284 3.60262 154.11 3.64032ZM154.378 3.44396C154.447 3.53238 154.552 3.43095 154.552 3.2982C154.459 3.19678 154.378 3.30992 154.284 3.34894V3.58953C154.366 3.5961 154.389 3.54538 154.378 3.44396ZM162.825 3.20195C162.744 3.21496 162.732 3.14474 162.651 3.15123C162.673 3.22147 162.604 3.40612 162.697 3.39311C162.662 3.24108 162.813 3.29817 162.825 3.20195Z" fill="#B2C4C4"/>
<path id="Vector_12" fill-rule="evenodd" clip-rule="evenodd" d="M75.0973 7.52734C75.2829 7.75492 74.9462 7.85115 75.0509 7.92007C74.9224 7.9903 74.9687 7.57154 75.0973 7.52734Z" fill="#F7F7F7"/>
<path id="Vector_13" fill-rule="evenodd" clip-rule="evenodd" d="M133.695 5.97066C133.603 5.99016 133.579 5.93945 133.51 5.91992C133.776 5.71055 133.718 5.30482 133.776 4.94849C133.986 5.29181 133.707 5.59612 133.695 5.97066Z" fill="#F7F7F7"/>
<path id="Vector_14" fill-rule="evenodd" clip-rule="evenodd" d="M153.135 4.94838C153.065 5.06281 153.019 5.02511 152.902 4.99909C153.089 4.64407 152.682 4.62458 152.728 4.26956C152.845 4.06539 153.204 4.37748 153.263 4.07837C153.321 4.32676 152.74 4.71431 153.135 4.94838Z" fill="#F7F7F7"/>
</g>
<defs>
<clipPath id="clip0_6893_11705">
<rect width="180" height="8.69506" fill="white"/>
</clipPath>
</defs>
</svg>
