<svg width="24" height="25" viewBox="0 0 24 25" fill="none" xmlns="http://www.w3.org/2000/svg">
<g id="Instagram_official_page" clip-path="url(#clip0_6893_11841)">
<path id="Vector" d="M7.0301 0.13965C5.7533 0.19989 4.88138 0.40365 4.11914 0.70317C3.33026 1.01061 2.66162 1.42317 1.99634 2.09085C1.33106 2.75853 0.921379 3.42765 0.616099 4.21773C0.320659 4.98165 0.120499 5.85429 0.0640995 7.13181C0.00769946 8.40933 -0.00478054 8.81997 0.00145946 12.0787C0.00769946 15.3374 0.0220995 15.7459 0.0840195 17.0261C0.144979 18.3026 0.348019 19.1743 0.647539 19.9368C0.955459 20.7257 1.36754 21.3941 2.03546 22.0596C2.70338 22.7251 3.37202 23.1338 4.16402 23.4396C4.92722 23.7345 5.8001 23.9357 7.07738 23.9916C8.35466 24.0475 8.76578 24.0605 12.0235 24.0542C15.2813 24.048 15.6915 24.0336 16.9714 23.9729C18.2513 23.9121 19.1184 23.7077 19.8811 23.4096C20.67 23.1009 21.3389 22.6896 22.0039 22.0214C22.669 21.3533 23.0784 20.6837 23.3835 19.8931C23.6791 19.1299 23.88 18.257 23.9355 16.9807C23.9914 15.6998 24.0046 15.2909 23.9983 12.0326C23.9921 8.77437 23.9775 8.36589 23.9167 7.08621C23.856 5.80653 23.6527 4.93749 23.3535 4.17453C23.0451 3.38565 22.6335 2.71773 21.9658 2.05173C21.2981 1.38573 20.628 0.97653 19.8377 0.67221C19.074 0.37677 18.2016 0.17541 16.9243 0.12021C15.6471 0.0650102 15.2359 0.0508502 11.977 0.0570902C8.71802 0.0633302 8.31002 0.0772502 7.0301 0.13965ZM7.17026 21.8328C6.00026 21.7819 5.36498 21.5875 4.94162 21.4248C4.38098 21.2088 3.98162 20.9477 3.5597 20.5298C3.13778 20.112 2.87858 19.7112 2.6597 19.1517C2.4953 18.7284 2.2973 18.0938 2.24258 16.9238C2.18306 15.6593 2.17058 15.2796 2.16362 12.0758C2.15666 8.87205 2.1689 8.49285 2.22434 7.22781C2.27426 6.05877 2.46986 5.42277 2.63234 4.99965C2.84834 4.43829 3.1085 4.03965 3.5273 3.61797C3.9461 3.19629 4.3457 2.93661 4.90562 2.71773C5.3285 2.55261 5.96306 2.35629 7.13258 2.30061C8.3981 2.24061 8.7773 2.22861 11.9806 2.22165C15.1839 2.21469 15.564 2.22669 16.83 2.28237C17.9991 2.33325 18.6353 2.52693 19.0579 2.69037C19.6188 2.90637 20.0179 3.16581 20.4396 3.58533C20.8613 4.00485 21.1212 4.40301 21.3401 4.96413C21.5055 5.38581 21.7018 6.02013 21.757 7.19037C21.8172 8.45589 21.8309 8.83533 21.8367 12.0384C21.8424 15.2414 21.8311 15.6218 21.7757 16.8864C21.7246 18.0564 21.5307 18.6919 21.3677 19.1157C21.1517 19.6761 20.8913 20.0757 20.4723 20.4972C20.0532 20.9186 19.6541 21.1783 19.0939 21.3972C18.6715 21.562 18.0363 21.7589 16.8677 21.8145C15.6022 21.8741 15.223 21.8865 12.0185 21.8935C8.81402 21.9004 8.43602 21.8875 7.1705 21.8328M16.9529 5.64213C16.9534 5.92696 17.0383 6.20524 17.1969 6.44179C17.3556 6.67835 17.5808 6.86254 17.8442 6.97108C18.1075 7.07961 18.3971 7.10762 18.6764 7.05155C18.9556 6.99548 19.212 6.85786 19.413 6.65609C19.614 6.45432 19.7507 6.19747 19.8058 5.91801C19.8608 5.63855 19.8317 5.34905 19.7222 5.08612C19.6127 4.82318 19.4277 4.59862 19.1906 4.44085C18.9534 4.28307 18.6748 4.19916 18.39 4.19973C18.0082 4.20049 17.6423 4.35287 17.3728 4.62336C17.1033 4.89385 16.9523 5.2603 16.9529 5.64213ZM5.8385 12.0677C5.84522 15.4709 8.60906 18.2234 12.0115 18.2169C15.414 18.2104 18.1685 15.4469 18.162 12.0437C18.1555 8.64045 15.391 5.88717 11.988 5.89389C8.58506 5.90061 5.83202 8.66493 5.8385 12.0677ZM7.99994 12.0633C7.99837 11.2722 8.23144 10.4984 8.66968 9.83968C9.10791 9.181 9.73162 8.66706 10.4619 8.36286C11.1923 8.05866 11.9964 7.97785 12.7726 8.13066C13.5489 8.28347 14.2624 8.66303 14.8229 9.22134C15.3834 9.77965 15.7658 10.4916 15.9217 11.2673C16.0776 12.0429 15.9999 12.8473 15.6986 13.5789C15.3973 14.3104 14.8859 14.9361 14.2289 15.377C13.572 15.8178 12.7991 16.0539 12.0079 16.0555C11.4826 16.0566 10.9622 15.9542 10.4765 15.7542C9.99076 15.5541 9.54918 15.2604 9.17699 14.8896C8.8048 14.5189 8.50929 14.0785 8.30733 13.5936C8.10537 13.1086 8.00091 12.5886 7.99994 12.0633Z" fill="#FFA800"/>
</g>
<defs>
<clipPath id="clip0_6893_11841">
<rect width="24" height="24" fill="white" transform="translate(0 0.0556641)"/>
</clipPath>
</defs>
</svg>
