<svg width="24" height="24" viewBox="0 0 24 24" fill="none" xmlns="http://www.w3.org/2000/svg">
<g id="up-right-from-square">
<path id="Primary" d="M15.4375 1.5C14.9084 1.5 14.4285 1.81992 14.2234 2.31211C14.0184 2.8043 14.1332 3.36621 14.5064 3.74355L16.2045 5.4375L9.26055 12.3855C8.74785 12.8982 8.74785 13.7309 9.26055 14.2436C9.77324 14.7563 10.6059 14.7563 11.1186 14.2436L18.0625 7.29551L19.7605 8.99355C20.1379 9.3709 20.6998 9.48164 21.192 9.27656C21.6842 9.07148 22.0041 8.5957 22.0041 8.0625V2.8125C22.0041 2.08652 21.4176 1.5 20.6916 1.5L15.4375 1.5ZM4.28125 2.8125C2.46836 2.8125 1 4.28086 1 6.09375V19.2188C1 21.0316 2.46836 22.5 4.28125 22.5H17.4062C19.2191 22.5 20.6875 21.0316 20.6875 19.2188V14.625C20.6875 13.899 20.101 13.3125 19.375 13.3125C18.649 13.3125 18.0625 13.899 18.0625 14.625V19.2188C18.0625 19.5797 17.7672 19.875 17.4062 19.875H4.28125C3.92031 19.875 3.625 19.5797 3.625 19.2188V6.09375C3.625 5.73281 3.92031 5.4375 4.28125 5.4375H8.875C9.60098 5.4375 10.1875 4.85098 10.1875 4.125C10.1875 3.39902 9.60098 2.8125 8.875 2.8125H4.28125Z" fill="#334731"/>
</g>
</svg>
