<svg width="26" height="34" viewBox="0 0 26 34" fill="none" xmlns="http://www.w3.org/2000/svg">
<path id="location_on" d="M13 17.0557C13.8938 17.0557 14.6589 16.7374 15.2953 16.101C15.9318 15.4645 16.25 14.6994 16.25 13.8057C16.25 12.9119 15.9318 12.1468 15.2953 11.5104C14.6589 10.8739 13.8938 10.5557 13 10.5557C12.1062 10.5557 11.3411 10.8739 10.7047 11.5104C10.0682 12.1468 9.75 12.9119 9.75 13.8057C9.75 14.6994 10.0682 15.4645 10.7047 16.101C11.3411 16.7374 12.1062 17.0557 13 17.0557ZM13 33.3057C8.63958 29.5952 5.38281 26.1489 3.22969 22.9666C1.07656 19.7843 0 16.839 0 14.1307C0 10.0682 1.30677 6.83171 3.92031 4.42129C6.53385 2.01087 9.56042 0.805664 13 0.805664C16.4396 0.805664 19.4661 2.01087 22.0797 4.42129C24.6932 6.83171 26 10.0682 26 14.1307C26 16.839 24.9234 19.7843 22.7703 22.9666C20.6172 26.1489 17.3604 29.5952 13 33.3057Z" fill="#FFA800"/>
</svg>
