<svg width="219" height="60" viewBox="0 0 219 60" fill="none" xmlns="http://www.w3.org/2000/svg">
<g id="Logos" clip-path="url(#clip0_8859_1599)">
<path id="Vector" d="M145.607 46.6864C145.294 46.8318 145.002 46.9579 144.73 47.0826V46.0809C144.898 45.9978 145.064 45.8939 145.232 45.7886L145.607 46.6864Z" fill="white"/>
<path id="Vector_2" d="M182.197 15.2903H180.924C179.506 8.76098 176.44 3.85806 169.722 1.68854V46.4144H173.019V47.416H152.992V46.4144H156.393V1.68854C152.992 2.94098 146.442 6.0706 145.191 15.2903H143.855L144.71 0.583008H181.405L182.197 15.2903Z" fill="white"/>
<path id="Vector_3" d="M213.676 0.584823C212.195 5.82016 207.543 0.0847364 199.365 0.041701C189.039 -0.0414006 183.824 7.44655 183.99 14.6867C184.22 23.9079 191.687 26.5567 198.322 28.7262C203.683 30.4787 211.151 31.8558 211.298 38.5929C211.443 45.1222 205.915 47.1671 200.701 47.1255C192.189 47.0216 186.223 39.4076 186.223 31.835H184.763V47.4178H186.161C187.81 42.8488 192.921 47.961 201.139 48.3141C208.211 48.6273 218.953 44.6844 218.849 31.8335C218.766 23.7817 213.216 21.1314 203.746 17.607C198.801 15.7714 191.313 14.1228 191.334 8.84589C191.355 3.31823 196.216 1.21104 199.971 1.21104C203.453 1.13884 206.827 2.42043 209.384 4.78607C211.94 7.1517 213.479 10.4168 213.676 13.8942H214.886V0.584823H213.676Z" fill="white"/>
<path id="Vector_4" d="M140.518 34.629C139.703 30.7692 138.348 26.7225 133.57 25.0116C130.846 24.1226 128.035 23.5281 125.184 23.2383C140.433 21.7988 141.206 15.3526 141.121 10.7643C141.018 4.61041 133.862 0.583008 124.182 0.583008H101.736V1.68854H105.304V46.4144H101.736V47.416H121.492V46.4144H118.717V23.6344L121.388 23.676C121.854 23.7067 122.311 23.8124 122.743 23.9891C126.561 25.5962 125.706 32.7087 126.416 38.1325C127.457 46.0597 131.589 48.5008 137.45 48.5216C141.435 48.5216 142.666 48.0423 144.73 47.0821V46.0805C140.057 48.4177 141.248 38.1326 140.518 34.629ZM122.743 22.4043C122.086 22.5465 121.413 22.6093 120.741 22.5913H118.717V1.68854H120.741C121.414 1.67717 122.087 1.74743 122.743 1.89777C125.518 2.56554 126.686 5.04817 126.791 11.7437C126.916 19.0239 125.789 21.7158 122.743 22.4043Z" fill="white"/>
<path id="Vector_5" d="M100.278 46.3938L99.7155 47.4163H86.093C80.7731 24.6779 77.1019 15.7698 56.5538 3.12817L55.1559 3.06582L44.1629 34.9615L38.009 36.861L37.6336 38.4458L35.4433 47.4162H32.5645L35.2964 34.6084L37.6336 33.856L41.848 32.4804L53.0502 0C81.8371 2.96919e-05 94.4164 16.7092 100.278 46.3938Z" fill="white"/>
<path id="Vector_6" d="M42.681 0.583008V1.68854C41.0739 1.68854 39.4059 1.68854 37.6326 3.31642C36.796 4.08907 36.0789 4.98177 35.5047 5.96525L28.1414 21.2572L28.0568 46.3936H31.6449V47.416H11.223V46.3936H14.7073V24.8454L3.1504 1.73158L0 1.68854V0.583008H21.2989V1.68854H17.7731L26.7643 20.631L34.5238 4.17117C34.8784 3.4203 34.3991 2.75249 33.7937 2.31476C33.0013 1.75235 31.9996 1.81468 29.8716 1.68854V0.583008H42.681Z" fill="white"/>
<path id="Vector_7" d="M0 52.5239H1.98282L3.14912 54.4741L4.31542 52.5239H6.28577L4.03928 55.8809V58.2996H2.24946V55.8809L0 52.5239Z" fill="white"/>
<path id="Vector_8" d="M6.12797 56.2188C6.11882 55.9253 6.17157 55.6331 6.28278 55.3613C6.394 55.0896 6.56119 54.8442 6.77347 54.6413C7.29374 54.2213 7.94711 54.0011 8.61551 54.0207C9.28391 54.0403 9.92326 54.2984 10.418 54.7482C10.7722 55.1804 10.9553 55.7277 10.9325 56.286C10.9098 56.8443 10.6829 57.3748 10.2949 57.7769C9.80925 58.209 9.17193 58.4305 8.52304 58.3927C7.936 58.4202 7.3582 58.2388 6.89219 57.8807C6.64495 57.6817 6.44726 57.428 6.31465 57.1396C6.18204 56.8512 6.11815 56.536 6.12797 56.2188ZM7.73507 56.2143C7.71119 56.508 7.79159 56.8006 7.96212 57.0409C8.03117 57.1246 8.11784 57.1921 8.21596 57.2385C8.31408 57.285 8.42122 57.3092 8.52977 57.3095C8.63832 57.3098 8.74558 57.2861 8.84394 57.2402C8.9423 57.1943 9.02933 57.1272 9.09882 57.0438C9.26911 56.7958 9.3478 56.4962 9.32141 56.1965C9.34291 55.9086 9.26371 55.6222 9.09733 55.3863C9.03108 55.3028 8.94667 55.2354 8.8505 55.1894C8.75434 55.1434 8.64895 55.1199 8.54234 55.1207C8.43161 55.1186 8.32187 55.1418 8.22137 55.1883C8.12087 55.2348 8.03223 55.3035 7.96212 55.3893C7.79228 55.6282 7.71143 55.919 7.73359 56.2114L7.73507 56.2143Z" fill="white"/>
<path id="Vector_9" d="M11.6797 57.1417L13.272 56.9904C13.3177 57.1521 13.4146 57.2947 13.548 57.397C13.6897 57.4847 13.8549 57.5271 14.0213 57.5186C14.1988 57.5296 14.3747 57.481 14.5214 57.3806C14.5637 57.3528 14.5983 57.3149 14.6221 57.2704C14.6459 57.2258 14.6583 57.1759 14.658 57.1254C14.6574 57.0682 14.6401 57.0124 14.6082 56.9649C14.5763 56.9175 14.5312 56.8804 14.4784 56.8583C14.2549 56.779 14.0236 56.7238 13.7884 56.6936C13.3948 56.6356 13.0067 56.5453 12.6279 56.4235C12.4089 56.3389 12.2189 56.1931 12.0803 56.0035C11.9323 55.8105 11.8539 55.5731 11.8578 55.3298C11.8517 55.0715 11.9368 54.8194 12.0982 54.6175C12.2715 54.4081 12.5012 54.2526 12.76 54.1694C13.1264 54.0588 13.5083 54.0087 13.8908 54.021C14.2628 54.0066 14.635 54.0451 14.9963 54.1353C15.2203 54.2038 15.4245 54.3255 15.5913 54.4899C15.7667 54.677 15.9016 54.8983 15.9876 55.1399L14.4665 55.2913C14.4377 55.1726 14.3678 55.068 14.2692 54.996C14.133 54.9088 13.9737 54.8649 13.8121 54.8698C13.6736 54.8591 13.5353 54.8929 13.4174 54.9663C13.3796 54.9926 13.3486 55.0277 13.3272 55.0685C13.3058 55.1093 13.2944 55.1546 13.2942 55.2007C13.2939 55.2509 13.3088 55.3 13.3369 55.3415C13.3649 55.3831 13.4049 55.4152 13.4515 55.4337C13.6726 55.5118 13.9032 55.5597 14.1371 55.5762C14.5426 55.6082 14.9422 55.693 15.3257 55.8284C15.5661 55.9193 15.7739 56.0801 15.9223 56.2899C16.0583 56.4821 16.1309 56.7119 16.13 56.9473C16.1269 57.1991 16.0506 57.4445 15.9104 57.6537C15.7414 57.9008 15.5013 58.0908 15.2218 58.1983C14.8117 58.3507 14.3754 58.4198 13.9382 58.4016C13.3744 58.4467 12.8091 58.3337 12.3059 58.0751C11.9838 57.8595 11.7594 57.5258 11.6812 57.1462L11.6797 57.1417Z" fill="white"/>
<path id="Vector_10" d="M21.796 56.6046H18.5818C18.5915 56.813 18.6639 57.0137 18.7895 57.1803C18.8635 57.2686 18.9566 57.3389 19.0617 57.386C19.1669 57.433 19.2813 57.4555 19.3965 57.4519C19.5542 57.4525 19.7092 57.4115 19.8461 57.3332C19.9551 57.2632 20.0502 57.1737 20.1265 57.069L21.7069 57.2144C21.5072 57.5929 21.2041 57.9068 20.8329 58.1197C20.3712 58.3256 19.8672 58.4192 19.3623 58.3927C18.9141 58.4126 18.467 58.3325 18.0535 58.1582C17.724 57.9913 17.4498 57.7326 17.264 57.4133C17.0496 57.0502 16.9412 56.6344 16.9509 56.2128C16.9391 55.919 16.9888 55.626 17.0969 55.3525C17.205 55.0791 17.3691 54.8313 17.5786 54.625C17.8137 54.4142 18.0881 54.252 18.386 54.1475C18.684 54.0431 18.9996 53.9986 19.3148 54.0166C19.8022 53.9942 20.2878 54.0878 20.732 54.2896C21.0717 54.4627 21.3488 54.7377 21.5244 55.0761C21.7215 55.4954 21.8146 55.9561 21.796 56.4191V56.6001V56.6046ZM20.1651 55.8359C20.1592 55.5918 20.0708 55.357 19.9143 55.1696C19.8342 55.0973 19.7399 55.0423 19.6375 55.0081C19.5351 54.9739 19.4267 54.9612 19.3192 54.9708C19.2117 54.9804 19.1073 55.0122 19.0126 55.064C18.9178 55.1158 18.8348 55.1866 18.7687 55.272C18.6572 55.4397 18.5936 55.6347 18.5847 55.8359H20.1651Z" fill="white"/>
<path id="Vector_11" d="M22.8008 54.1163H24.298V54.7262C24.4764 54.5022 24.6986 54.3169 24.951 54.1816C25.2001 54.0672 25.4723 54.0118 25.7464 54.0198C26.0213 54.0059 26.2948 54.0675 26.5373 54.1979C26.7413 54.3277 26.9065 54.5102 27.0151 54.7262C27.2083 54.4988 27.4424 54.3096 27.7052 54.1682C27.9473 54.0627 28.2098 54.0121 28.4738 54.0198C28.6675 54.0087 28.8614 54.0387 29.0427 54.1077C29.2241 54.1768 29.3887 54.2834 29.526 54.4205C29.8074 54.7738 29.9428 55.2215 29.9044 55.6715V58.2995H28.2973V55.9163C28.3091 55.767 28.2705 55.6181 28.1874 55.4934C28.1433 55.4271 28.0836 55.3726 28.0134 55.3348C27.9433 55.297 27.865 55.2771 27.7853 55.2767C27.6986 55.2739 27.6123 55.2908 27.5331 55.3263C27.4539 55.3618 27.3838 55.4149 27.3282 55.4815C27.1965 55.6747 27.1357 55.9075 27.1561 56.1404V58.2995H25.5475V55.9935C25.5533 55.868 25.5428 55.7423 25.5164 55.6195C25.4846 55.5186 25.4224 55.43 25.3383 55.3658C25.2537 55.3009 25.1495 55.2669 25.043 55.2693C24.9567 55.2673 24.8711 55.285 24.7927 55.321C24.7143 55.357 24.6451 55.4104 24.5904 55.4771C24.4538 55.6783 24.3909 55.9204 24.4123 56.1627V58.298H22.8052V54.1133L22.8008 54.1163Z" fill="white"/>
<path id="Vector_12" d="M31.1738 52.5239H32.778V53.6161H31.1738V52.5239ZM31.1738 54.1162H32.778V58.3009H31.1738V54.1162Z" fill="white"/>
<path id="Vector_13" d="M35.9951 52.5239V54.1162H36.8781V55.287H35.9951V56.7724C35.9857 56.8929 36.003 57.014 36.0456 57.1271C36.0746 57.1729 36.1158 57.2098 36.1645 57.2337C36.2132 57.2575 36.2676 57.2674 36.3216 57.2621C36.4909 57.2516 36.6579 57.2166 36.8172 57.1583L36.9359 58.2668C36.5711 58.3492 36.1985 58.3925 35.8245 58.3959C35.5222 58.4148 35.2198 58.3624 34.9415 58.243C34.7517 58.1405 34.6033 57.9753 34.5216 57.7756C34.4121 57.449 34.3658 57.1045 34.3851 56.7606V55.2885H33.793V54.1177H34.3851V53.349L35.9922 52.5254L35.9951 52.5239Z" fill="white"/>
<path id="Vector_14" d="M42.5441 56.6046H39.3298C39.3395 56.813 39.4119 57.0137 39.5376 57.1803C39.6116 57.2686 39.7046 57.3389 39.8098 57.3859C39.9149 57.433 40.0294 57.4555 40.1445 57.4519C40.3022 57.4525 40.4573 57.4115 40.5941 57.3332C40.7032 57.2633 40.7983 57.1737 40.8746 57.069L42.455 57.2144C42.2552 57.5929 41.9521 57.9068 41.5809 58.1197C41.1192 58.3256 40.6152 58.4192 40.1104 58.3927C39.6621 58.4126 39.215 58.3325 38.8015 58.1582C38.472 57.9913 38.1979 57.7326 38.0121 57.4133C37.7977 57.0502 37.6892 56.6344 37.699 56.2128C37.6871 55.919 37.7369 55.626 37.845 55.3525C37.9531 55.0791 38.1171 54.8313 38.3267 54.625C38.5617 54.4142 38.8361 54.252 39.1341 54.1475C39.432 54.0431 39.7477 53.9986 40.0629 54.0166C40.5502 53.9942 41.0359 54.0878 41.48 54.2896C41.8197 54.4627 42.0968 54.7377 42.2724 55.0761C42.4695 55.4954 42.5627 55.9561 42.544 56.4191V56.6001L42.5441 56.6046ZM40.9132 55.8359C40.9073 55.5918 40.8189 55.357 40.6624 55.1696C40.5822 55.0973 40.488 55.0423 40.3856 55.0081C40.2832 54.9739 40.1748 54.9612 40.0673 54.9708C39.9597 54.9804 39.8553 55.0122 39.7606 55.064C39.6659 55.1158 39.5829 55.1866 39.5168 55.272C39.4053 55.4397 39.3417 55.6347 39.3328 55.8359H40.9132Z" fill="white"/>
<path id="Vector_15" d="M49.8892 57.3467H47.8562L47.5758 58.3009H45.752L47.923 52.5239H49.8699L52.0424 58.3009H50.1741L49.8907 57.3467H49.8892ZM49.5153 56.0972L48.8757 54.0212L48.2406 56.0972H49.5153Z" fill="white"/>
<path id="Vector_16" d="M52.7793 54.116H54.281V54.8001C54.3812 54.5644 54.5346 54.3552 54.7292 54.1887C54.8956 54.0731 55.095 54.0143 55.2975 54.021C55.57 54.0325 55.836 54.1083 56.0736 54.2421L55.578 55.3848C55.4368 55.3177 55.2843 55.2774 55.1284 55.2661C55.0314 55.2631 54.9354 55.2855 54.8498 55.3311C54.7641 55.3766 54.6919 55.4437 54.6402 55.5258C54.4361 55.9529 54.35 56.4268 54.3908 56.8984V58.3007H52.7793V54.116Z" fill="white"/>
<path id="Vector_17" d="M61.378 56.6046H58.1638C58.1735 56.813 58.2459 57.0137 58.3716 57.1803C58.4456 57.2686 58.5386 57.3389 58.6438 57.3859C58.7489 57.433 58.8633 57.4555 58.9785 57.4519C59.1362 57.4525 59.2912 57.4115 59.4281 57.3332C59.5371 57.2632 59.6322 57.1737 59.7086 57.069L61.289 57.2144C61.0892 57.5929 60.7861 57.9068 60.4149 58.1197C59.9532 58.3256 59.4492 58.4192 58.9443 58.3927C58.4961 58.4126 58.049 58.3325 57.6355 58.1582C57.306 57.9913 57.0318 57.7326 56.8461 57.4133C56.6316 57.0502 56.5232 56.6344 56.533 56.2128C56.5211 55.919 56.5708 55.626 56.6789 55.3525C56.787 55.0791 56.9511 54.8313 57.1606 54.625C57.3957 54.4142 57.6701 54.252 57.968 54.1475C58.266 54.0431 58.5817 53.9986 58.8969 54.0166C59.3842 53.9942 59.8699 54.0878 60.314 54.2896C60.6537 54.4627 60.9308 54.7377 61.1064 55.0761C61.3035 55.4954 61.3967 55.9561 61.378 56.4191V56.6001L61.378 56.6046ZM59.7472 55.8359C59.7413 55.5918 59.6529 55.357 59.4964 55.1696C59.4162 55.0973 59.322 55.0423 59.2196 55.0081C59.1172 54.9739 59.0088 54.9612 58.9013 54.9708C58.7937 54.9804 58.6893 55.0122 58.5946 55.064C58.4999 55.1158 58.4169 55.1866 58.3508 55.272C58.2393 55.4397 58.1757 55.6347 58.1668 55.8359H59.7472Z" fill="white"/>
<path id="Vector_18" d="M63.8323 55.4695L62.3008 55.3077C62.3412 55.0823 62.4265 54.8673 62.5516 54.6756C62.6762 54.5086 62.8371 54.3722 63.022 54.2764C63.2127 54.1805 63.4177 54.1164 63.6289 54.0864C63.905 54.0403 64.1845 54.018 64.4644 54.0196C64.8518 54.0126 65.2391 54.0395 65.6219 54.0998C65.8915 54.1424 66.1439 54.2596 66.3505 54.4381C66.4995 54.5749 66.6109 54.7476 66.674 54.9397C66.7489 55.1385 66.7886 55.349 66.7912 55.5614V57.4089C66.7881 57.5641 66.8006 57.7192 66.8283 57.8719C66.8668 58.0202 66.922 58.1636 66.9931 58.2993H65.4883C65.4419 58.2207 65.4022 58.1383 65.3696 58.053C65.3448 57.9659 65.3265 57.8771 65.3147 57.7873C65.1349 57.9696 64.9225 58.1166 64.6885 58.2207C64.3735 58.3421 64.0378 58.4011 63.7002 58.3943C63.2909 58.4231 62.8855 58.2994 62.562 58.047C62.4384 57.942 62.3395 57.8109 62.2725 57.6631C62.2056 57.5153 62.1722 57.3545 62.1747 57.1923C62.1633 56.9047 62.2638 56.6238 62.4552 56.4088C62.744 56.1544 63.104 55.9948 63.4865 55.9517C64.089 55.83 64.4793 55.7455 64.6573 55.698C64.8495 55.6442 65.0387 55.5803 65.2242 55.5065C65.2321 55.4329 65.2254 55.3585 65.2046 55.2874C65.1837 55.2164 65.149 55.1502 65.1025 55.0925C64.979 55.0004 64.8254 54.958 64.6722 54.9738C64.4675 54.961 64.2632 55.0046 64.0816 55.0999C63.9604 55.1926 63.8728 55.3224 63.8323 55.4695ZM65.2227 56.3123C65.0016 56.391 64.7716 56.4622 64.5342 56.5216C64.3123 56.5622 64.1014 56.6492 63.9154 56.7768C63.8731 56.8148 63.8393 56.8613 63.816 56.9132C63.7927 56.9651 63.7806 57.0212 63.7803 57.0781C63.78 57.135 63.7916 57.1913 63.8144 57.2434C63.8371 57.2955 63.8705 57.3423 63.9124 57.3807C64.0228 57.4673 64.1612 57.5101 64.3012 57.5009C64.4757 57.5009 64.6473 57.4565 64.7998 57.3718C64.937 57.2997 65.0504 57.1894 65.1263 57.0543C65.1962 56.9019 65.2288 56.735 65.2213 56.5675V56.3108L65.2227 56.3123Z" fill="white"/>
<path id="Vector_19" d="M70.832 58.2993V52.5224H73.8073C74.2335 52.5068 74.6596 52.5549 75.0716 52.6648C75.3595 52.7554 75.6084 52.9405 75.778 53.1902C75.9629 53.466 76.0564 53.7931 76.0451 54.125C76.0556 54.4056 75.9897 54.6838 75.8543 54.9297C75.7189 55.1757 75.5191 55.3802 75.2764 55.5214C75.0808 55.6292 74.8695 55.7059 74.6502 55.7485C74.8148 55.7975 74.9716 55.8694 75.1162 55.9621C75.2219 56.0524 75.3174 56.1539 75.4011 56.2649C75.4956 56.3766 75.5795 56.4968 75.6519 56.624L76.5155 58.2979H74.4974L73.5432 56.532C73.4666 56.3632 73.3566 56.2117 73.2197 56.0868C73.0913 55.9977 72.9382 55.951 72.7819 55.9532H72.6246V58.2979H70.832L70.832 58.2993ZM72.6246 54.8626H73.3785C73.5378 54.8508 73.6958 54.8244 73.8504 54.7839C73.9663 54.7615 74.0699 54.697 74.1412 54.6029C74.2151 54.5068 74.2543 54.3886 74.2525 54.2675C74.2575 54.1872 74.2441 54.1067 74.2132 54.0324C74.1823 53.9581 74.1349 53.8918 74.0744 53.8386C73.875 53.7163 73.6408 53.6631 73.4081 53.6873H72.6246V54.8611V54.8626Z" fill="white"/>
<path id="Vector_20" d="M81.6827 56.6046H78.4685C78.4782 56.813 78.5506 57.0137 78.6762 57.1803C78.7502 57.2686 78.8433 57.3389 78.9484 57.386C79.0536 57.433 79.168 57.4555 79.2832 57.4519C79.4409 57.4525 79.5959 57.4115 79.7328 57.3332C79.8418 57.2633 79.9369 57.1737 80.0133 57.069L81.5937 57.2144C81.3939 57.5929 81.0908 57.9068 80.7196 58.1197C80.2579 58.3256 79.7539 58.4192 79.249 58.3927C78.8008 58.4126 78.3537 58.3325 77.9402 58.1582C77.6107 57.9913 77.3365 57.7326 77.1508 57.4133C76.9363 57.0502 76.8279 56.6344 76.8376 56.2128C76.8258 55.919 76.8755 55.626 76.9836 55.3525C77.0917 55.0791 77.2558 54.8313 77.4653 54.625C77.7004 54.4142 77.9748 54.252 78.2727 54.1475C78.5707 54.0431 78.8863 53.9986 79.2015 54.0166C79.6889 53.9942 80.1746 54.0878 80.6187 54.2896C80.9584 54.4627 81.2355 54.7377 81.4111 55.0761C81.6082 55.4954 81.7014 55.9561 81.6827 56.4191V56.6001L81.6827 56.6046ZM80.0518 55.8359C80.0459 55.5918 79.9575 55.357 79.801 55.1696C79.7209 55.0973 79.6266 55.0423 79.5242 55.0081C79.4218 54.9739 79.3134 54.9612 79.2059 54.9708C79.0984 54.9804 78.994 55.0122 78.8993 55.064C78.8045 55.1158 78.7215 55.1866 78.6554 55.272C78.5439 55.4397 78.4803 55.6347 78.4714 55.8359H80.0518Z" fill="white"/>
<path id="Vector_21" d="M85.7879 54.1161H87.2897V58.0678L87.2941 58.2533C87.2945 58.5129 87.2372 58.7694 87.1264 59.0042C87.0253 59.2288 86.8728 59.4265 86.6813 59.5814C86.4733 59.7395 86.2324 59.8485 85.9764 59.9005C85.6547 59.9701 85.3261 60.0035 84.997 59.9999C84.3941 60.0594 83.7879 59.9264 83.2652 59.62C83.1127 59.5003 82.9905 59.3462 82.9088 59.1704C82.827 58.9945 82.788 58.8018 82.7948 58.608C82.7948 58.5545 82.7978 58.4848 82.8022 58.3943L84.3589 58.5724C84.381 58.6909 84.4453 58.7974 84.5399 58.8721C84.6725 58.9569 84.8278 58.9994 84.9851 58.9938C85.0796 59.0011 85.1746 58.9884 85.2639 58.9564C85.3531 58.9245 85.4346 58.874 85.503 58.8083C85.6364 58.6205 85.6971 58.3905 85.6737 58.1613V57.5277C85.5242 57.7213 85.3311 57.8768 85.1101 57.9815C84.8891 58.0863 84.6464 58.1372 84.4019 58.1302C84.1322 58.1332 83.8662 58.0674 83.6289 57.9392C83.3916 57.8109 83.1909 57.6244 83.0456 57.3971C82.7844 56.988 82.6563 56.5079 82.6791 56.023C82.6411 55.4844 82.8099 54.9516 83.151 54.5331C83.3083 54.3638 83.5003 54.2303 83.7139 54.142C83.9275 54.0536 84.1576 54.0124 84.3886 54.0211C84.6648 54.0009 84.9413 54.0567 85.188 54.1826C85.4347 54.3084 85.6422 54.4995 85.7879 54.7349L85.7879 54.1161ZM84.2788 56.1447C84.2589 56.385 84.3281 56.6242 84.4732 56.8169C84.5365 56.8888 84.615 56.9459 84.703 56.9838C84.791 57.0218 84.8864 57.0398 84.9822 57.0365C85.0775 57.0388 85.172 57.0196 85.2589 56.9803C85.3457 56.941 85.4226 56.8826 85.4837 56.8095C85.6336 56.6149 85.706 56.3717 85.687 56.1269C85.7038 55.8758 85.6283 55.6273 85.4748 55.4279C85.4117 55.3512 85.3321 55.2896 85.2419 55.2477C85.1518 55.2059 85.0534 55.1848 84.954 55.186C84.8606 55.1824 84.7677 55.2006 84.6827 55.2392C84.5977 55.2779 84.5229 55.3359 84.4643 55.4086C84.3224 55.6276 84.2576 55.8877 84.2803 56.1476L84.2788 56.1447Z" fill="white"/>
<path id="Vector_22" d="M88.5742 52.5239H90.1784V53.6161H88.5742V52.5239ZM88.5742 54.1162H90.1784V58.3009H88.5742V54.1162Z" fill="white"/>
<path id="Vector_23" d="M91.2627 56.2188C91.2536 55.9253 91.3063 55.6331 91.4175 55.3613C91.5288 55.0896 91.6959 54.8442 91.9082 54.6413C92.4285 54.2213 93.0819 54.0011 93.7503 54.0207C94.4187 54.0403 95.058 54.2984 95.5528 54.7482C95.9069 55.1804 96.09 55.7276 96.0673 56.286C96.0446 56.8443 95.8177 57.3748 95.4296 57.7769C94.944 58.209 94.3067 58.4305 93.6578 58.3927C93.0707 58.4202 92.493 58.2388 92.0269 57.8807C91.7797 57.6817 91.582 57.428 91.4494 57.1396C91.3168 56.8512 91.2529 56.536 91.2627 56.2188ZM92.8698 56.2143C92.846 56.508 92.9263 56.8006 93.0969 57.0409C93.1659 57.1246 93.2526 57.1921 93.3507 57.2385C93.4488 57.285 93.556 57.3092 93.6645 57.3095C93.7731 57.3098 93.8804 57.2861 93.9787 57.2402C94.0771 57.1943 94.1641 57.1272 94.2336 57.0438C94.4039 56.7958 94.4826 56.4962 94.4562 56.1965C94.4777 55.9086 94.3985 55.6222 94.2321 55.3863C94.1659 55.3028 94.0814 55.2354 93.9853 55.1894C93.8891 55.1434 93.7837 55.1199 93.6771 55.1207C93.5664 55.1186 93.4566 55.1418 93.3561 55.1883C93.2556 55.2348 93.167 55.3035 93.0969 55.3893C92.9271 55.6282 92.8462 55.919 92.8684 56.2114L92.8698 56.2143Z" fill="white"/>
<path id="Vector_24" d="M97.0977 54.116H98.592V54.7972C98.7747 54.5539 99.0056 54.3508 99.2702 54.2006C99.5299 54.0738 99.8167 54.0121 100.106 54.0211C100.297 54.0106 100.489 54.0405 100.668 54.1087C100.848 54.177 101.011 54.2821 101.147 54.4173C101.425 54.7615 101.559 55.1994 101.523 55.6401V58.3008H99.9112V55.9992C99.93 55.8023 99.8785 55.6052 99.7658 55.4427C99.7138 55.3869 99.6501 55.3432 99.5793 55.3148C99.5086 55.2863 99.4324 55.2737 99.3562 55.278C99.2658 55.2755 99.176 55.2943 99.0941 55.3327C99.0122 55.3711 98.9403 55.428 98.8843 55.4991C98.7394 55.7365 98.6759 56.0147 98.7033 56.2915V58.3008H97.0992V54.116H97.0977Z" fill="white"/>
<path id="Vector_25" d="M104.199 55.4695L102.668 55.3077C102.708 55.0823 102.794 54.8673 102.919 54.6756C103.043 54.5086 103.204 54.3722 103.389 54.2764C103.58 54.1805 103.785 54.1164 103.996 54.0864C104.272 54.0403 104.552 54.018 104.832 54.0196C105.219 54.0126 105.606 54.0395 105.989 54.0998C106.259 54.1424 106.511 54.2596 106.718 54.4381C106.867 54.5749 106.978 54.7476 107.041 54.9397C107.116 55.1385 107.156 55.349 107.158 55.5614V57.4089C107.155 57.5641 107.168 57.7192 107.196 57.8719C107.234 58.0202 107.289 58.1636 107.36 58.2993H105.856C105.809 58.2207 105.769 58.1383 105.737 58.053C105.712 57.9659 105.694 57.8771 105.682 57.7873C105.502 57.9696 105.29 58.1166 105.056 58.2207C104.741 58.3421 104.405 58.4011 104.067 58.3943C103.658 58.4231 103.253 58.2994 102.929 58.047C102.806 57.942 102.707 57.8109 102.64 57.6631C102.573 57.5153 102.539 57.3545 102.542 57.1923C102.53 56.9047 102.631 56.6238 102.822 56.4088C103.111 56.1544 103.471 55.9948 103.854 55.9517C104.456 55.83 104.846 55.7455 105.025 55.698C105.217 55.6442 105.406 55.5803 105.591 55.5065C105.599 55.4329 105.593 55.3585 105.572 55.2874C105.551 55.2164 105.516 55.1502 105.47 55.0925C105.346 55.0004 105.193 54.958 105.039 54.9738C104.835 54.961 104.63 55.0046 104.449 55.0999C104.328 55.1926 104.24 55.3224 104.199 55.4695ZM105.59 56.3123C105.369 56.391 105.139 56.4622 104.901 56.5216C104.679 56.5622 104.469 56.6492 104.283 56.7768C104.24 56.8148 104.206 56.8613 104.183 56.9132C104.16 56.9651 104.148 57.0212 104.147 57.0781C104.147 57.135 104.159 57.1913 104.182 57.2434C104.204 57.2955 104.238 57.3423 104.28 57.3807C104.39 57.4673 104.528 57.5101 104.668 57.5009C104.843 57.5009 105.014 57.4565 105.167 57.3718C105.304 57.2997 105.418 57.1894 105.493 57.0543C105.563 56.9019 105.596 56.735 105.588 56.5675V56.3108L105.59 56.3123Z" fill="white"/>
<path id="Vector_26" d="M108.434 52.5239H110.042V58.2996H108.434V52.5239Z" fill="white"/>
<path id="Vector_27" d="M113.715 52.5239H119.14V53.9503H117.319V58.2996H115.534V53.9503H113.715V52.5239Z" fill="white"/>
<path id="Vector_28" d="M119.766 54.116H121.267V54.8001C121.368 54.5644 121.521 54.3552 121.716 54.1887C121.882 54.0731 122.081 54.0143 122.284 54.021C122.556 54.0325 122.822 54.1083 123.06 54.2421L122.564 55.3848C122.423 55.3177 122.271 55.2774 122.115 55.2661C122.018 55.2631 121.922 55.2855 121.836 55.3311C121.75 55.3766 121.678 55.4437 121.626 55.5258C121.422 55.9529 121.336 56.4268 121.377 56.8984V58.3007H119.766V54.116Z" fill="white"/>
<path id="Vector_29" d="M125.19 55.4695L123.658 55.3077C123.699 55.0823 123.784 54.8673 123.909 54.6756C124.034 54.5086 124.194 54.3722 124.379 54.2764C124.57 54.1805 124.775 54.1164 124.986 54.0864C125.262 54.0403 125.542 54.018 125.822 54.0196C126.209 54.0126 126.597 54.0395 126.979 54.0998C127.249 54.1424 127.501 54.2596 127.708 54.4381C127.857 54.5749 127.968 54.7476 128.031 54.9397C128.106 55.1385 128.146 55.349 128.149 55.5614V57.4089C128.146 57.5641 128.158 57.7192 128.186 57.8719C128.224 58.0202 128.279 58.1636 128.35 58.2993H126.846C126.799 58.2207 126.76 58.1383 126.727 58.053C126.702 57.9659 126.684 57.8771 126.672 57.7873C126.492 57.9696 126.28 58.1166 126.046 58.2207C125.731 58.3421 125.395 58.4011 125.058 58.3943C124.648 58.4231 124.243 58.2994 123.919 58.047C123.796 57.942 123.697 57.8109 123.63 57.6631C123.563 57.5153 123.53 57.3545 123.532 57.1923C123.521 56.9047 123.621 56.6238 123.813 56.4088C124.101 56.1544 124.461 55.9948 124.844 55.9517C125.446 55.83 125.837 55.7455 126.015 55.698C126.207 55.6442 126.396 55.5803 126.582 55.5065C126.59 55.4329 126.583 55.3585 126.562 55.2874C126.541 55.2164 126.506 55.1502 126.46 55.0925C126.336 55.0004 126.183 54.958 126.03 54.9738C125.825 54.961 125.621 55.0046 125.439 55.0999C125.318 55.1926 125.23 55.3224 125.19 55.4695ZM126.58 56.3123C126.359 56.391 126.129 56.4622 125.892 56.5216C125.67 56.5622 125.459 56.6492 125.273 56.7768C125.231 56.8148 125.197 56.8613 125.173 56.9132C125.15 56.9651 125.138 57.0212 125.138 57.0781C125.137 57.135 125.149 57.1913 125.172 57.2434C125.195 57.2955 125.228 57.3423 125.27 57.3807C125.38 57.4673 125.519 57.5101 125.659 57.5009C125.833 57.5009 126.005 57.4565 126.157 57.3718C126.294 57.2997 126.408 57.1894 126.484 57.0543C126.554 56.9019 126.586 56.735 126.579 56.5675V56.3108L126.58 56.3123Z" fill="white"/>
<path id="Vector_30" d="M129.367 54.116H130.862V54.7972C131.044 54.5539 131.275 54.3508 131.54 54.2006C131.799 54.0738 132.086 54.0121 132.375 54.0211C132.567 54.0106 132.759 54.0405 132.938 54.1087C133.117 54.177 133.281 54.2821 133.417 54.4173C133.694 54.7615 133.829 55.1994 133.792 55.6401V58.3008H132.181V55.9992C132.2 55.8023 132.148 55.6052 132.035 55.4427C131.983 55.3869 131.92 55.3432 131.849 55.3148C131.778 55.2863 131.702 55.2737 131.626 55.278C131.535 55.2755 131.446 55.2943 131.364 55.3327C131.282 55.3711 131.21 55.428 131.154 55.4991C131.009 55.7365 130.945 56.0147 130.973 56.2915V58.3008H129.369V54.116H129.367Z" fill="white"/>
<path id="Vector_31" d="M134.723 57.1417L136.315 56.9904C136.361 57.1521 136.458 57.2947 136.591 57.3969C136.733 57.4847 136.898 57.5271 137.064 57.5186C137.242 57.5296 137.418 57.481 137.564 57.3806C137.607 57.3528 137.641 57.3149 137.665 57.2704C137.689 57.2258 137.701 57.1759 137.701 57.1254C137.7 57.0682 137.683 57.0124 137.651 56.9649C137.619 56.9175 137.574 56.8804 137.521 56.8583C137.298 56.779 137.067 56.7238 136.831 56.6936C136.438 56.6356 136.05 56.5453 135.671 56.4235C135.452 56.3389 135.262 56.1931 135.123 56.0035C134.975 55.8105 134.897 55.5731 134.901 55.3298C134.895 55.0715 134.98 54.8194 135.141 54.6175C135.314 54.4081 135.544 54.2526 135.803 54.1694C136.169 54.0588 136.551 54.0087 136.934 54.021C137.306 54.0066 137.678 54.0451 138.039 54.1353C138.263 54.2038 138.467 54.3255 138.634 54.4899C138.81 54.677 138.945 54.8983 139.03 55.1399L137.509 55.2913C137.481 55.1726 137.411 55.068 137.312 54.996C137.176 54.9088 137.017 54.8649 136.855 54.8698C136.717 54.8591 136.578 54.8929 136.46 54.9663C136.422 54.9926 136.392 55.0277 136.37 55.0685C136.349 55.1093 136.337 55.1546 136.337 55.2007C136.337 55.2509 136.352 55.2999 136.38 55.3415C136.408 55.3831 136.448 55.4152 136.494 55.4337C136.716 55.5118 136.946 55.5597 137.18 55.5762C137.586 55.6082 137.985 55.693 138.369 55.8284C138.609 55.9193 138.817 56.0801 138.965 56.2899C139.101 56.4821 139.174 56.7119 139.173 56.9473C139.17 57.1991 139.094 57.4445 138.953 57.6537C138.784 57.9008 138.544 58.0908 138.265 58.1983C137.855 58.3507 137.418 58.4198 136.981 58.4016C136.417 58.4467 135.852 58.3337 135.349 58.0751C135.027 57.8595 134.802 57.5258 134.724 57.1462L134.723 57.1417Z" fill="white"/>
<path id="Vector_32" d="M140.201 59.8933V54.1164H141.703V54.7351C141.856 54.5226 142.05 54.343 142.274 54.2069C142.514 54.0822 142.78 54.0184 143.05 54.0214C143.304 54.0107 143.555 54.0639 143.783 54.1762C144.01 54.2885 144.205 54.4562 144.35 54.6639C144.668 55.1311 144.828 55.6872 144.809 56.2517C144.849 56.827 144.67 57.3962 144.309 57.8455C144.151 58.0235 143.956 58.1648 143.737 58.2596C143.519 58.3545 143.282 58.4005 143.044 58.3945C142.813 58.3976 142.583 58.3552 142.368 58.2699C142.162 58.1838 141.976 58.056 141.822 57.8944V59.8933H140.203L140.201 59.8933ZM141.81 56.2206C141.789 56.4834 141.862 56.745 142.018 56.9581C142.082 57.0353 142.162 57.0969 142.253 57.1386C142.345 57.1802 142.444 57.2007 142.544 57.1985C142.635 57.1992 142.725 57.1786 142.806 57.1384C142.888 57.0982 142.959 57.0395 143.013 56.967C143.161 56.7346 143.228 56.4595 143.203 56.185C143.225 55.9209 143.155 55.6575 143.006 55.4386C142.95 55.3641 142.877 55.3037 142.794 55.2622C142.71 55.2208 142.618 55.1993 142.525 55.1997C142.427 55.1979 142.33 55.2187 142.241 55.2603C142.152 55.302 142.074 55.3635 142.013 55.4401C141.857 55.6688 141.784 55.9446 141.808 56.2206L141.81 56.2206Z" fill="white"/>
<path id="Vector_33" d="M145.636 56.2188C145.627 55.9253 145.679 55.6331 145.791 55.3613C145.902 55.0896 146.069 54.8442 146.281 54.6413C146.802 54.2213 147.455 54.0011 148.123 54.0207C148.792 54.0403 149.431 54.2984 149.926 54.7482C150.28 55.1804 150.463 55.7276 150.44 56.286C150.418 56.8443 150.191 57.3748 149.803 57.7769C149.317 58.209 148.68 58.4305 148.031 58.3927C147.444 58.4202 146.866 58.2388 146.4 57.8807C146.153 57.6817 145.955 57.428 145.822 57.1396C145.69 56.8512 145.626 56.536 145.636 56.2188ZM147.243 56.2143C147.219 56.508 147.299 56.8006 147.47 57.0409C147.539 57.1246 147.626 57.1921 147.724 57.2385C147.822 57.285 147.929 57.3092 148.038 57.3095C148.146 57.3098 148.253 57.2861 148.352 57.2402C148.45 57.1943 148.537 57.1272 148.607 57.0438C148.777 56.7958 148.856 56.4962 148.829 56.1965C148.851 55.9086 148.772 55.6222 148.605 55.3863C148.539 55.3028 148.454 55.2354 148.358 55.1894C148.262 55.1434 148.157 55.1199 148.05 55.1207C147.939 55.1186 147.83 55.1418 147.729 55.1883C147.629 55.2348 147.54 55.3035 147.47 55.3893C147.3 55.6282 147.219 55.919 147.241 56.2114L147.243 56.2143Z" fill="white"/>
<path id="Vector_34" d="M151.488 54.116H152.99V54.8001C153.09 54.5644 153.244 54.3552 153.438 54.1887C153.605 54.0731 153.804 54.0143 154.007 54.021C154.279 54.0326 154.545 54.1083 154.783 54.2421L154.287 55.3848C154.146 55.3177 153.993 55.2774 153.837 55.2661C153.74 55.2631 153.644 55.2855 153.559 55.3311C153.473 55.3766 153.401 55.4437 153.349 55.5258C153.145 55.9529 153.059 56.4268 153.1 56.8984V58.3007H151.488L151.488 54.116Z" fill="white"/>
<path id="Vector_35" d="M157.647 52.5239V54.1162H158.53V55.287H157.647V56.7724C157.638 56.8929 157.655 57.014 157.698 57.1271C157.727 57.1729 157.768 57.2098 157.817 57.2337C157.866 57.2575 157.92 57.2674 157.974 57.2621C158.143 57.2516 158.31 57.2166 158.47 57.1583L158.588 58.2668C158.223 58.3492 157.851 58.3925 157.477 58.3959C157.175 58.4148 156.872 58.3624 156.594 58.243C156.404 58.1405 156.256 57.9753 156.174 57.7756C156.064 57.449 156.018 57.1045 156.037 56.7606V55.2885H155.445V54.1177H156.037V53.349L157.645 52.5254L157.647 52.5239Z" fill="white"/>
<path id="Vector_36" d="M161.012 55.4695L159.481 55.3077C159.521 55.0823 159.606 54.8673 159.731 54.6756C159.856 54.5086 160.017 54.3722 160.202 54.2764C160.392 54.1805 160.597 54.1164 160.809 54.0864C161.085 54.0403 161.364 54.018 161.644 54.0196C162.032 54.0126 162.419 54.0395 162.802 54.0998C163.071 54.1424 163.324 54.2596 163.53 54.4381C163.679 54.5749 163.791 54.7476 163.854 54.9397C163.929 55.1385 163.968 55.349 163.971 55.5614V57.4089C163.968 57.5641 163.98 57.7192 164.008 57.8719C164.046 58.0202 164.102 58.1636 164.173 58.2993H162.668C162.622 58.2207 162.582 58.1383 162.549 58.053C162.525 57.9659 162.506 57.8771 162.494 57.7873C162.315 57.9696 162.102 58.1166 161.868 58.2207C161.553 58.3421 161.217 58.4011 160.88 58.3943C160.471 58.4231 160.065 58.2994 159.742 58.047C159.618 57.942 159.519 57.8109 159.452 57.6631C159.385 57.5153 159.352 57.3545 159.354 57.1923C159.343 56.9047 159.443 56.6238 159.635 56.4088C159.924 56.1544 160.284 55.9948 160.666 55.9517C161.269 55.83 161.659 55.7455 161.837 55.698C162.029 55.6442 162.218 55.5803 162.404 55.5065C162.412 55.4329 162.405 55.3585 162.384 55.2874C162.363 55.2164 162.329 55.1502 162.282 55.0925C162.159 55.0004 162.005 54.958 161.852 54.9738C161.647 54.961 161.443 55.0046 161.261 55.0999C161.14 55.1926 161.052 55.3224 161.012 55.4695ZM162.402 56.3123C162.181 56.391 161.951 56.4622 161.714 56.5216C161.492 56.5622 161.281 56.6492 161.095 56.7768C161.053 56.8148 161.019 56.8613 160.996 56.9132C160.972 56.9651 160.96 57.0212 160.96 57.0781C160.96 57.135 160.971 57.1913 160.994 57.2434C161.017 57.2955 161.05 57.3423 161.092 57.3807C161.202 57.4673 161.341 57.5101 161.481 57.5009C161.655 57.5009 161.827 57.4565 161.979 57.3718C162.117 57.2997 162.23 57.1894 162.306 57.0543C162.376 56.9019 162.408 56.735 162.401 56.5675V56.3108L162.402 56.3123Z" fill="white"/>
<path id="Vector_37" d="M166.985 52.5239V54.1162H167.868V55.287H166.985V56.7724C166.976 56.8929 166.993 57.014 167.036 57.1271C167.065 57.1729 167.106 57.2098 167.155 57.2337C167.203 57.2575 167.258 57.2674 167.312 57.2621C167.481 57.2516 167.648 57.2166 167.807 57.1583L167.926 58.2668C167.561 58.3492 167.189 58.3925 166.815 58.3959C166.512 58.4148 166.21 58.3624 165.932 58.243C165.742 58.1405 165.594 57.9753 165.512 57.7756C165.402 57.449 165.356 57.1045 165.375 56.7606V55.2885H164.783V54.1177H165.375V53.349L166.982 52.5254L166.985 52.5239Z" fill="white"/>
<path id="Vector_38" d="M168.949 52.5239H170.553V53.6161H168.949V52.5239ZM168.949 54.1162H170.553V58.3009H168.949V54.1162Z" fill="white"/>
<path id="Vector_39" d="M171.636 56.2188C171.627 55.9253 171.679 55.6331 171.791 55.3613C171.902 55.0896 172.069 54.8442 172.281 54.6413C172.802 54.2213 173.455 54.0011 174.123 54.0207C174.792 54.0403 175.431 54.2984 175.926 54.7482C176.28 55.1804 176.463 55.7276 176.44 56.286C176.418 56.8443 176.191 57.3748 175.803 57.7769C175.317 58.209 174.68 58.4305 174.031 58.3927C173.444 58.4202 172.866 58.2388 172.4 57.8807C172.153 57.6817 171.955 57.428 171.822 57.1396C171.69 56.8512 171.626 56.536 171.636 56.2188ZM173.243 56.2143C173.219 56.508 173.299 56.8006 173.47 57.0409C173.539 57.1246 173.626 57.1921 173.724 57.2385C173.822 57.285 173.929 57.3092 174.038 57.3095C174.146 57.3098 174.253 57.2861 174.352 57.2402C174.45 57.1943 174.537 57.1272 174.607 57.0438C174.777 56.7958 174.856 56.4962 174.829 56.1965C174.851 55.9086 174.771 55.6222 174.605 55.3863C174.539 55.3028 174.454 55.2354 174.358 55.1894C174.262 55.1434 174.157 55.1199 174.05 55.1207C173.939 55.1186 173.83 55.1418 173.729 55.1883C173.629 55.2348 173.54 55.3035 173.47 55.3893C173.3 55.6282 173.219 55.919 173.241 56.2114L173.243 56.2143Z" fill="white"/>
<path id="Vector_40" d="M177.473 54.116H178.967V54.7972C179.15 54.5539 179.381 54.3508 179.645 54.2006C179.905 54.0738 180.192 54.0121 180.481 54.0211C180.672 54.0106 180.864 54.0405 181.043 54.1087C181.223 54.177 181.386 54.2821 181.522 54.4173C181.8 54.7615 181.934 55.1994 181.898 55.6401V58.3008H180.286V55.9992C180.305 55.8023 180.253 55.6052 180.141 55.4427C180.089 55.3869 180.025 55.3432 179.954 55.3148C179.884 55.2863 179.807 55.2737 179.731 55.278C179.641 55.2755 179.551 55.2943 179.469 55.3327C179.387 55.3711 179.315 55.428 179.259 55.4991C179.114 55.7365 179.051 56.0147 179.078 56.2915V58.3008H177.474V54.116H177.473Z" fill="white"/>
<path id="Vector_41" d="M185.598 56.3882L187.297 56.2814C187.315 56.5077 187.392 56.7252 187.521 56.912C187.615 57.0291 187.735 57.1219 187.872 57.1828C188.009 57.2438 188.159 57.271 188.309 57.2623C188.52 57.2761 188.73 57.2123 188.898 57.0827C188.961 57.033 189.012 56.97 189.048 56.8981C189.083 56.8263 189.103 56.7474 189.104 56.6672C189.103 56.5898 189.085 56.5136 189.052 56.444C189.018 56.3745 188.969 56.3133 188.908 56.2651C188.631 56.0888 188.319 55.9744 187.994 55.9297C187.389 55.8315 186.815 55.5915 186.32 55.2293C186.158 55.0933 186.028 54.9226 185.941 54.7296C185.853 54.5367 185.811 54.3266 185.816 54.1148C185.816 53.815 185.906 53.5221 186.074 53.2734C186.266 52.9938 186.536 52.777 186.85 52.6502C187.304 52.4808 187.786 52.4041 188.27 52.4246C188.862 52.386 189.451 52.5295 189.959 52.8357C190.162 52.9916 190.328 53.1893 190.447 53.4154C190.567 53.6415 190.636 53.8907 190.65 54.146L188.968 54.2439C188.963 54.1363 188.936 54.0308 188.889 53.9341C188.841 53.8373 188.775 53.7513 188.693 53.6814C188.611 53.6115 188.515 53.5593 188.412 53.5279C188.309 53.4965 188.201 53.4867 188.094 53.499C187.927 53.4861 187.76 53.5329 187.625 53.6311C187.575 53.6689 187.535 53.7177 187.508 53.7736C187.481 53.8295 187.467 53.8909 187.467 53.9531C187.469 54.0014 187.481 54.0488 187.504 54.0917C187.526 54.1346 187.558 54.1719 187.596 54.2009C187.778 54.3152 187.983 54.3877 188.196 54.4131C188.773 54.5166 189.335 54.688 189.871 54.9236C190.173 55.063 190.428 55.2847 190.609 55.5631C190.764 55.8211 190.844 56.117 190.84 56.4179C190.841 56.7823 190.734 57.1387 190.532 57.4418C190.322 57.7589 190.023 58.0064 189.672 58.1526C189.231 58.3279 188.757 58.4102 188.282 58.3945C187.554 58.4733 186.824 58.2705 186.242 57.8276C185.858 57.4417 185.63 56.9285 185.599 56.3852L185.598 56.3882Z" fill="white"/>
<path id="Vector_42" d="M191.426 54.1162H193.119L193.983 56.9016L194.782 54.1162H196.363L194.704 58.5888C194.591 58.972 194.392 59.3245 194.124 59.6201C193.761 59.9001 193.308 60.0355 192.852 60C192.493 59.9889 192.135 59.9572 191.78 59.905L191.656 58.7862C191.906 58.8627 192.166 58.8997 192.427 58.896C192.59 58.9035 192.751 58.8582 192.886 58.7669C193.028 58.6434 193.131 58.4816 193.183 58.3009L191.426 54.1162Z" fill="white"/>
<path id="Vector_43" d="M196.791 57.1417L198.383 56.9904C198.429 57.1521 198.526 57.2947 198.659 57.397C198.801 57.4847 198.966 57.5271 199.133 57.5186C199.31 57.5296 199.486 57.481 199.633 57.3806C199.675 57.3528 199.71 57.3149 199.733 57.2704C199.757 57.2258 199.77 57.1759 199.769 57.1254C199.769 57.0682 199.751 57.0124 199.72 56.9649C199.688 56.9175 199.642 56.8804 199.59 56.8583C199.366 56.779 199.135 56.7238 198.9 56.6936C198.506 56.6356 198.118 56.5453 197.739 56.4235C197.52 56.3389 197.33 56.1931 197.192 56.0035C197.044 55.8105 196.965 55.5731 196.969 55.3298C196.963 55.0715 197.048 54.8194 197.209 54.6175C197.383 54.4081 197.612 54.2526 197.871 54.1694C198.238 54.0588 198.62 54.0087 199.002 54.021C199.374 54.0066 199.746 54.0451 200.108 54.1353C200.332 54.2038 200.536 54.3255 200.703 54.4899C200.878 54.677 201.013 54.8983 201.099 55.1399L199.578 55.2913C199.549 55.1726 199.479 55.068 199.38 54.996C199.244 54.9088 199.085 54.8649 198.923 54.8698C198.785 54.8591 198.647 54.8929 198.529 54.9663C198.491 54.9926 198.46 55.0277 198.439 55.0685C198.417 55.1093 198.406 55.1546 198.406 55.2007C198.405 55.2509 198.42 55.3 198.448 55.3415C198.476 55.3831 198.516 55.4152 198.563 55.4337C198.784 55.5118 199.015 55.5597 199.248 55.5762C199.654 55.6082 200.054 55.693 200.437 55.8284C200.677 55.9193 200.885 56.0801 201.034 56.2899C201.17 56.4821 201.242 56.7119 201.241 56.9473C201.238 57.1991 201.162 57.4445 201.022 57.6537C200.853 57.9008 200.613 58.0908 200.333 58.1983C199.923 58.3507 199.487 58.4198 199.05 58.4016C198.486 58.4467 197.92 58.3337 197.417 58.0751C197.095 57.8595 196.871 57.5259 196.793 57.1462L196.791 57.1417Z" fill="white"/>
<path id="Vector_44" d="M204.196 52.5239V54.1162H205.079V55.287H204.196V56.7724C204.187 56.8929 204.204 57.014 204.247 57.1271C204.276 57.1729 204.317 57.2098 204.366 57.2337C204.414 57.2575 204.469 57.2674 204.523 57.2621C204.692 57.2516 204.859 57.2166 205.018 57.1583L205.137 58.2668C204.772 58.3492 204.4 58.3925 204.026 58.3959C203.723 58.4148 203.421 58.3624 203.143 58.243C202.953 58.1405 202.804 57.9753 202.723 57.7756C202.613 57.449 202.567 57.1045 202.586 56.7606V55.2885H201.994V54.1177H202.586V53.349L204.193 52.5254L204.196 52.5239Z" fill="white"/>
<path id="Vector_45" d="M210.743 56.6046H207.529C207.539 56.813 207.611 57.0137 207.737 57.1803C207.811 57.2686 207.904 57.3389 208.009 57.3859C208.114 57.433 208.229 57.4555 208.344 57.4519C208.501 57.4525 208.656 57.4115 208.793 57.3332C208.902 57.2632 208.997 57.1737 209.074 57.069L210.654 57.2144C210.454 57.5929 210.151 57.9068 209.78 58.1197C209.318 58.3256 208.814 58.4192 208.31 58.3927C207.861 58.4126 207.414 58.3325 207.001 58.1582C206.671 57.9913 206.397 57.7326 206.211 57.4133C205.997 57.0502 205.888 56.6344 205.898 56.2128C205.886 55.919 205.936 55.626 206.044 55.3525C206.152 55.0791 206.316 54.8313 206.526 54.625C206.761 54.4142 207.035 54.252 207.333 54.1475C207.631 54.0431 207.947 53.9986 208.262 54.0166C208.749 53.9942 209.235 54.0878 209.679 54.2896C210.019 54.4627 210.296 54.7377 210.472 55.0761C210.669 55.4954 210.762 55.9561 210.743 56.4191V56.6001L210.743 56.6046ZM209.112 55.8359C209.107 55.5918 209.018 55.357 208.862 55.1696C208.781 55.0973 208.687 55.0423 208.585 55.0081C208.482 54.9739 208.374 54.9612 208.266 54.9708C208.159 54.9804 208.055 55.0122 207.96 55.064C207.865 55.1158 207.782 55.1866 207.716 55.272C207.605 55.4397 207.541 55.6347 207.532 55.8359H209.112Z" fill="white"/>
<path id="Vector_46" d="M211.75 54.1163H213.247V54.7262C213.426 54.5022 213.648 54.3169 213.9 54.1816C214.149 54.0672 214.422 54.0118 214.696 54.0198C214.971 54.0059 215.244 54.0675 215.487 54.1979C215.691 54.3277 215.856 54.5102 215.964 54.7262C216.158 54.4988 216.392 54.3096 216.654 54.1682C216.897 54.0627 217.159 54.0121 217.423 54.0198C217.617 54.0087 217.811 54.0387 217.992 54.1077C218.173 54.1768 218.338 54.2834 218.475 54.4205C218.757 54.7738 218.892 55.2215 218.854 55.6715V58.2995H217.247V55.9163C217.258 55.767 217.22 55.6181 217.137 55.4934C217.092 55.4272 217.033 55.3728 216.963 55.335C216.892 55.2973 216.814 55.2773 216.735 55.2767C216.648 55.2739 216.562 55.2908 216.482 55.3263C216.403 55.3618 216.333 55.4149 216.278 55.4815C216.146 55.6747 216.085 55.9075 216.105 56.1404V58.2995H214.497V55.9935C214.503 55.868 214.492 55.7423 214.466 55.6195C214.434 55.5186 214.372 55.43 214.288 55.3658C214.203 55.3009 214.099 55.2669 213.992 55.2693C213.906 55.2673 213.82 55.285 213.742 55.321C213.664 55.357 213.594 55.4104 213.54 55.4771C213.403 55.6783 213.34 55.9204 213.362 56.1627V58.298H211.754V54.1133L211.75 54.1163Z" fill="white"/>
</g>
<defs>
<clipPath id="clip0_8859_1599">
<rect width="218.854" height="60" fill="white"/>
</clipPath>
</defs>
</svg>
