<svg width="26" height="21" viewBox="0 0 26 21" fill="none" xmlns="http://www.w3.org/2000/svg">
<path id="mail" d="M2.6 20.8557C1.885 20.8557 1.27292 20.6011 0.76375 20.0919C0.254583 19.5827 0 18.9707 0 18.2557V2.65566C0 1.94066 0.254583 1.32858 0.76375 0.819414C1.27292 0.310247 1.885 0.0556641 2.6 0.0556641H23.4C24.115 0.0556641 24.7271 0.310247 25.2362 0.819414C25.7454 1.32858 26 1.94066 26 2.65566V18.2557C26 18.9707 25.7454 19.5827 25.2362 20.0919C24.7271 20.6011 24.115 20.8557 23.4 20.8557H2.6ZM13 11.7557L23.4 5.25566V2.65566L13 9.15566L2.6 2.65566V5.25566L13 11.7557Z" fill="#FFA800"/>
</svg>
