<svg width="25" height="25" viewBox="0 0 25 25" fill="none" xmlns="http://www.w3.org/2000/svg">
<g id="file-pdf" clip-path="url(#clip0_8736_4073)">
<path id="Primary" d="M0.473633 3.5C0.473633 1.84531 1.81895 0.5 3.47363 0.5H10.9736V6.5C10.9736 7.32969 11.6439 8 12.4736 8H18.4736V14.75H8.72363C7.06895 14.75 5.72363 16.0953 5.72363 17.75V24.5H3.47363C1.81895 24.5 0.473633 23.1547 0.473633 21.5V3.5ZM18.4736 6.5H12.4736V0.5L18.4736 6.5ZM8.72363 17H10.2236C11.6721 17 12.8486 18.1766 12.8486 19.625C12.8486 21.0734 11.6721 22.25 10.2236 22.25H9.47363V23.75C9.47363 24.1625 9.13613 24.5 8.72363 24.5C8.31113 24.5 7.97363 24.1625 7.97363 23.75V21.5V17.75C7.97363 17.3375 8.31113 17 8.72363 17ZM10.2236 20.75C10.8471 20.75 11.3486 20.2484 11.3486 19.625C11.3486 19.0016 10.8471 18.5 10.2236 18.5H9.47363V20.75H10.2236ZM14.7236 17H16.2236C17.4658 17 18.4736 18.0078 18.4736 19.25V22.25C18.4736 23.4922 17.4658 24.5 16.2236 24.5H14.7236C14.3111 24.5 13.9736 24.1625 13.9736 23.75V17.75C13.9736 17.3375 14.3111 17 14.7236 17ZM16.2236 23C16.6361 23 16.9736 22.6625 16.9736 22.25V19.25C16.9736 18.8375 16.6361 18.5 16.2236 18.5H15.4736V23H16.2236ZM19.9736 17.75C19.9736 17.3375 20.3111 17 20.7236 17H22.9736C23.3861 17 23.7236 17.3375 23.7236 17.75C23.7236 18.1625 23.3861 18.5 22.9736 18.5H21.4736V20H22.9736C23.3861 20 23.7236 20.3375 23.7236 20.75C23.7236 21.1625 23.3861 21.5 22.9736 21.5H21.4736V23.75C21.4736 24.1625 21.1361 24.5 20.7236 24.5C20.3111 24.5 19.9736 24.1625 19.9736 23.75V20.75V17.75Z" fill="#334731"/>
</g>
<defs>
<clipPath id="clip0_8736_4073">
<rect width="24" height="24" fill="white" transform="translate(0.473633 0.5)"/>
</clipPath>
</defs>
</svg>
