<svg width="14" height="14" viewBox="0 0 14 14" fill="none" xmlns="http://www.w3.org/2000/svg">
<path id="Primary" d="M0.980551 6.00035H0.724099C0.322827 6.00035 0 5.66602 0 5.25046V1.25102C0 0.947941 0.174991 0.67298 0.446528 0.557371C0.718065 0.441763 1.02882 0.504254 1.237 0.719848L2.49211 2.01966C5.13507 -0.683078 9.39217 -0.673704 12.02 2.05091C14.66 4.7849 14.66 9.21552 12.02 11.9495C9.3801 14.6835 5.10188 14.6835 2.46194 11.9495C2.0848 11.5589 2.0848 10.9247 2.46194 10.5341C2.83907 10.1435 3.45154 10.1435 3.82867 10.5341C5.71435 12.4869 8.77065 12.4869 10.6563 10.5341C12.542 8.58124 12.542 5.41606 10.6563 3.46321C8.7797 1.51974 5.74754 1.51036 3.85884 3.43196L5.09886 4.71928C5.30704 4.93488 5.36738 5.25671 5.25575 5.53792C5.14412 5.81913 4.87862 6.00035 4.58596 6.00035H0.980551Z" fill="#334731"/>
</svg>
