<svg width="18" height="19" viewBox="0 0 18 19" fill="none" xmlns="http://www.w3.org/2000/svg">
<path id="search" d="M16.6 18.3906L10.3 12.0906C9.8 12.4906 9.225 12.8073 8.575 13.0406C7.925 13.274 7.23333 13.3906 6.5 13.3906C4.68333 13.3906 3.14583 12.7615 1.8875 11.5031C0.629167 10.2448 0 8.70729 0 6.89062C0 5.07396 0.629167 3.53646 1.8875 2.27813C3.14583 1.01979 4.68333 0.390625 6.5 0.390625C8.31667 0.390625 9.85417 1.01979 11.1125 2.27813C12.3708 3.53646 13 5.07396 13 6.89062C13 7.62396 12.8833 8.31562 12.65 8.96562C12.4167 9.61562 12.1 10.1906 11.7 10.6906L18 16.9906L16.6 18.3906ZM6.5 11.3906C7.75 11.3906 8.8125 10.9531 9.6875 10.0781C10.5625 9.20312 11 8.14062 11 6.89062C11 5.64062 10.5625 4.57812 9.6875 3.70312C8.8125 2.82812 7.75 2.39062 6.5 2.39062C5.25 2.39062 4.1875 2.82812 3.3125 3.70312C2.4375 4.57812 2 5.64062 2 6.89062C2 8.14062 2.4375 9.20312 3.3125 10.0781C4.1875 10.9531 5.25 11.3906 6.5 11.3906Z" fill="#1C2E5B"/>
</svg>
