<svg width="19" height="12" viewBox="0 0 19 12" fill="none" xmlns="http://www.w3.org/2000/svg">
<path id="stat_minus_1" d="M9.56945 11.797C9.38418 11.797 9.21293 11.767 9.05571 11.707C8.8982 11.6467 8.74543 11.5425 8.59737 11.3945L0.541537 3.33865C0.273204 3.07031 0.136677 2.74865 0.131954 2.37365C0.127232 1.99865 0.263759 1.67226 0.541537 1.39448C0.810148 1.12587 1.13432 0.991563 1.51404 0.991563C1.89348 0.991563 2.21751 1.12587 2.48612 1.39448L9.56945 8.46365L16.6528 1.39448C16.9214 1.12587 17.2432 0.989202 17.6182 0.98448C17.9932 0.980036 18.3196 1.1167 18.5974 1.39448C18.8657 1.66281 18.9999 1.98684 18.9999 2.36656C18.9999 2.74628 18.8657 3.07031 18.5974 3.33865L10.5415 11.3945C10.3935 11.5425 10.2407 11.6467 10.0832 11.707C9.92598 11.767 9.75473 11.797 9.56945 11.797Z" fill="#1C2E5B"/>
</svg>
