<svg width="19" height="16" viewBox="0 0 19 16" fill="none" xmlns="http://www.w3.org/2000/svg">
<path id="confirmation_number" d="M9.375 12.6875C9.64062 12.6875 9.86328 12.5977 10.043 12.418C10.2227 12.2383 10.3125 12.0156 10.3125 11.75C10.3125 11.4844 10.2227 11.2617 10.043 11.082C9.86328 10.9023 9.64062 10.8125 9.375 10.8125C9.10938 10.8125 8.88672 10.9023 8.70703 11.082C8.52734 11.2617 8.4375 11.4844 8.4375 11.75C8.4375 12.0156 8.52734 12.2383 8.70703 12.418C8.88672 12.5977 9.10938 12.6875 9.375 12.6875ZM9.375 8.9375C9.64062 8.9375 9.86328 8.84766 10.043 8.66797C10.2227 8.48828 10.3125 8.26562 10.3125 8C10.3125 7.73438 10.2227 7.51172 10.043 7.33203C9.86328 7.15234 9.64062 7.0625 9.375 7.0625C9.10938 7.0625 8.88672 7.15234 8.70703 7.33203C8.52734 7.51172 8.4375 7.73438 8.4375 8C8.4375 8.26562 8.52734 8.48828 8.70703 8.66797C8.88672 8.84766 9.10938 8.9375 9.375 8.9375ZM9.375 5.1875C9.64062 5.1875 9.86328 5.09766 10.043 4.91797C10.2227 4.73828 10.3125 4.51562 10.3125 4.25C10.3125 3.98438 10.2227 3.76172 10.043 3.58203C9.86328 3.40234 9.64062 3.3125 9.375 3.3125C9.10938 3.3125 8.88672 3.40234 8.70703 3.58203C8.52734 3.76172 8.4375 3.98438 8.4375 4.25C8.4375 4.51562 8.52734 4.73828 8.70703 4.91797C8.88672 5.09766 9.10938 5.1875 9.375 5.1875ZM16.875 15.5H1.875C1.35938 15.5 0.917969 15.3164 0.550781 14.9492C0.183594 14.582 0 14.1406 0 13.625V9.875C0.515625 9.875 0.957031 9.69141 1.32422 9.32422C1.69141 8.95703 1.875 8.51562 1.875 8C1.875 7.48438 1.69141 7.04297 1.32422 6.67578C0.957031 6.30859 0.515625 6.125 0 6.125V2.375C0 1.85938 0.183594 1.41797 0.550781 1.05078C0.917969 0.683594 1.35938 0.5 1.875 0.5H16.875C17.3906 0.5 17.832 0.683594 18.1992 1.05078C18.5664 1.41797 18.75 1.85938 18.75 2.375V6.125C18.2344 6.125 17.793 6.30859 17.4258 6.67578C17.0586 7.04297 16.875 7.48438 16.875 8C16.875 8.51562 17.0586 8.95703 17.4258 9.32422C17.793 9.69141 18.2344 9.875 18.75 9.875V13.625C18.75 14.1406 18.5664 14.582 18.1992 14.9492C17.832 15.3164 17.3906 15.5 16.875 15.5ZM16.875 13.625V11.2344C16.2969 10.8906 15.8398 10.4336 15.5039 9.86328C15.168 9.29297 15 8.67188 15 8C15 7.32812 15.168 6.70703 15.5039 6.13672C15.8398 5.56641 16.2969 5.10938 16.875 4.76562V2.375H1.875V4.76562C2.45312 5.10938 2.91016 5.56641 3.24609 6.13672C3.58203 6.70703 3.75 7.32812 3.75 8C3.75 8.67188 3.58203 9.29297 3.24609 9.86328C2.91016 10.4336 2.45312 10.8906 1.875 11.2344V13.625H16.875Z" fill="black"/>
</svg>
