<svg width="180" height="10" viewBox="0 0 180 10" fill="none" xmlns="http://www.w3.org/2000/svg">
<path id="Vector" fill-rule="evenodd" clip-rule="evenodd" d="M98.9348 5.46051C98.8527 5.20692 98.5862 5.14974 98.6207 4.77517C98.447 4.68024 97.9234 4.81288 97.7724 4.68024C97.6569 4.74396 97.6795 4.96505 97.5523 5.02225C97.3774 5.01705 97.3191 4.88961 97.2846 4.72446C96.3089 4.8571 95.4487 4.62301 94.6586 4.82589C94.5558 4.80797 94.4618 4.75676 94.3909 4.68013C94.1363 4.88298 93.8222 5.02866 93.7758 5.4604C93.6473 5.16911 93.5081 5.1938 93.4153 4.87C93.3032 4.92367 93.2102 5.01033 93.1488 5.11836C93.0321 5.11187 93.1011 4.909 92.9274 4.97143C92.9393 5.32124 92.6026 5.29523 92.5669 5.60734C92.5383 5.3476 92.5383 5.08551 92.5669 4.82578C92.3931 4.74905 92.4741 4.95322 92.3931 4.97154C91.9863 4.73095 91.8007 4.97154 91.452 5.02225C91.3009 4.88309 90.882 4.43834 90.7429 4.87011C90.6877 4.65465 90.6136 4.44446 90.5216 4.24198C90.336 4.24198 90.3479 4.47087 90.2087 4.29269C90.0842 4.55525 89.9942 4.83282 89.9409 5.11847C89.7209 4.8961 89.9874 4.63602 89.7672 4.33691C89.6851 4.34343 89.7315 4.50206 89.6387 4.48267C89.628 4.62312 89.7672 4.5971 89.7672 4.72468C89.7494 4.80987 89.7067 4.88789 89.6447 4.94896C89.5827 5.01003 89.504 5.05143 89.4185 5.06798C89.2794 4.77539 89.4185 4.4893 89.3258 4.19148C89.0209 4.20018 88.7171 4.1503 88.431 4.04454C88.3489 4.02634 88.2097 4.17848 88.3025 4.19148C88.2097 4.33724 88.1407 4.05103 88.036 4.04454C85.9907 4.03932 84.4796 4.2799 82.6901 4.33713C82.6619 4.34846 82.6385 4.36913 82.6238 4.39566C82.609 4.4222 82.6039 4.453 82.6091 4.48289C82.226 4.36975 81.7489 4.25532 81.4942 4.58564C81.1457 4.43867 81.0528 4.64806 80.6923 4.68057C80.6206 4.92033 80.5621 5.16389 80.5174 5.41013C80.4127 5.44913 80.2735 5.43612 80.2509 5.55707C80.0879 5.34118 80.0069 5.04208 79.7155 4.97187C79.4715 5.09287 79.5072 5.44913 79.5298 5.74694C79.4489 5.74042 79.5072 5.58828 79.4025 5.60778C79.2867 5.79986 79.2113 6.01363 79.1812 6.23592C79.042 6.06425 78.9718 5.81715 78.8219 5.652C78.647 5.77815 78.4376 5.88087 78.3791 6.14098C78.2054 5.91209 77.9959 6.02652 77.8449 5.79765C77.6129 6.10325 77.369 6.09024 77.0429 6.18517C77.0787 5.9758 76.962 5.9186 76.8692 5.84836C76.6598 5.95631 76.3921 6.52215 76.1601 6.14098C76.21 6.3501 76.1938 6.56957 76.1137 6.76909C75.94 6.66766 75.8471 6.47779 75.7067 6.57932C75.5139 6.29341 75.4203 5.95215 75.4402 5.60789C75.3938 5.61441 75.358 5.59488 75.358 5.55718C75.1034 5.53116 75.1843 5.86148 74.9047 5.79776C74.6692 6.21043 74.4896 6.65255 74.3705 7.11252C74.4124 7.19918 74.4271 7.29648 74.4126 7.39165C74.3982 7.48681 74.3553 7.57538 74.2896 7.6457C73.929 7.26466 74.5096 6.69376 74.0683 6.28022C74.0218 6.66777 73.697 6.84592 73.7089 7.20746C73.7089 7.40382 73.9289 7.51822 73.8827 7.79134C73.7553 7.74715 73.6269 7.61448 73.6161 7.8876C73.4757 7.93179 73.5578 7.72894 73.4876 7.69641C73.371 7.72894 73.2092 7.71593 73.1271 7.79134C73.0223 7.77314 73.1164 7.55076 73.0807 7.44933C72.9998 7.36611 72.8023 7.40382 72.7321 7.30239C72.5121 7.38561 72.5583 7.77965 72.3727 7.8876C72.3025 7.84857 72.3144 7.72894 72.2787 7.64559C72.0122 7.76659 71.8373 8.00063 71.478 8.03314C71.4661 7.75353 71.1401 7.76005 70.9426 7.79112C70.9426 7.59476 70.827 7.51284 70.8152 7.30217C70.5939 7.25143 70.4321 7.08629 70.2346 7.25795C69.9669 7.08629 69.9443 6.92114 69.5718 6.91592C69.3862 7.15653 69.2577 7.44911 68.9912 7.59476C68.9091 7.49334 68.9555 7.27745 68.9912 7.15653C68.6188 7.25143 68.5498 7.68321 68.2821 7.88738C68.1429 7.74693 67.9453 7.67149 67.875 7.44911C67.7239 7.41661 67.8167 7.64547 67.655 7.59487C67.5503 7.49345 67.5503 7.26455 67.4801 7.11241C67.2136 7.30217 67.1779 7.62089 67.0731 7.88749C66.9696 7.88097 66.9922 7.72883 66.9922 7.59487C66.3295 7.86796 66.2605 7.27756 65.6096 7.40371C65.5977 7.25154 65.6442 7.04869 65.5633 6.96677C65.4241 6.92125 65.4241 7.03568 65.3884 7.11252C65.2373 7.0683 65.3658 7.01759 65.342 6.86413C65.1907 6.84592 65.2372 7.03579 65.0754 7.01107C64.7064 6.76064 64.3221 6.5335 63.9248 6.33096C63.7856 6.33745 63.8666 6.55983 63.7856 6.62355C63.6691 6.57932 63.5299 6.54682 63.4715 6.67426C63.3204 6.56632 63.1812 6.44539 63.0301 6.33096C62.7443 6.32537 62.459 6.35774 62.1817 6.42722C61.45 7.5443 61.0432 9.00471 59.3356 9.05542C59.4869 8.85254 59.288 8.71861 59.1607 8.6679C59.1952 8.51573 59.3356 8.46502 59.3356 8.28035C59.3582 8.12821 59.1143 8.26214 59.1607 8.08398C58.8704 8.26214 58.7657 8.66138 58.4516 8.81354C58.4052 8.59766 58.5563 8.4585 58.4516 8.32586C58.1387 8.4338 57.8948 8.30636 57.5568 8.52222C57.3593 8.19842 57.3368 7.73417 56.8025 7.69644V7.50008C56.5931 7.49359 56.4419 7.5573 56.3955 7.74066C56.2325 7.60153 56.1635 7.34794 55.8719 7.35313C55.8957 7.20738 55.8255 7.17627 55.8255 7.06184C55.6399 7.05532 55.5471 7.15026 55.559 7.35313C55.4725 7.27239 55.3624 7.22133 55.2449 7.20738C55.022 7.53094 54.7117 7.78442 54.3501 7.93823C54.2454 7.69622 54.3965 7.43624 54.2692 7.25809C53.8278 7.39854 53.8159 7.90572 53.4209 7.98894C53.3626 7.92522 53.3971 7.76007 53.3281 7.69633C53.1532 7.69633 53.1187 7.84849 52.9795 7.88752C53.0277 7.77017 53.0487 7.64337 53.0406 7.51673C53.0326 7.39009 52.9958 7.26696 52.933 7.15666C52.6653 7.33482 52.5844 7.12545 52.3167 7.06173C52.143 7.12545 52.0847 7.3088 51.9562 7.40374C51.817 7.43624 51.7944 7.35302 51.6897 7.35302C51.5731 7.39854 51.6432 7.62611 51.4684 7.59504C51.2244 7.44928 51.3292 7.1763 51.2018 6.86419C50.6319 6.90321 50.4927 6.71202 50.0394 6.76925C49.9465 6.71854 49.9347 6.5911 49.8656 6.52867C49.7954 6.71843 49.5979 6.75105 49.5515 6.96693C49.4813 6.92142 49.4587 6.84592 49.4587 6.71854C49.2838 6.68732 49.354 6.92791 49.191 6.91619C49.2148 6.80827 49.2957 6.65493 49.1565 6.6236C48.5057 7.04886 48.2034 7.86813 47.4597 8.17895C47.4597 7.98919 47.5525 7.88765 47.5525 7.69646C47.111 7.89285 47.042 8.50275 46.4376 8.52225C46.4018 8.42082 46.2983 8.37649 46.2983 8.22966C46.1818 8.29338 46.1818 8.48455 45.9962 8.47154C46.0499 8.19967 46.0615 7.92115 46.0307 7.64575C45.6011 7.55733 45.6583 8.02029 45.3679 8.08401C45.3248 8.00929 45.3085 7.92216 45.3215 7.83691C45.1478 7.86166 45.1704 7.89285 45.055 7.7914C44.7408 8.16074 44.3577 7.76021 44.1709 7.55082C44.0406 7.59168 43.9188 7.65599 43.8115 7.74058C43.6605 7.69635 43.7877 7.65216 43.7652 7.49999C43.532 7.42978 43.532 7.63263 43.3701 7.64575C42.9858 7.62625 42.9394 7.24002 42.5218 7.25823C42.3826 7.28424 42.3933 7.47408 42.1613 7.40398C42.103 7.24013 42.1149 7.00475 41.9399 6.96704C41.8126 6.96704 41.7544 7.05546 41.72 7.1568C41.5914 7.00463 41.3475 7.13205 41.2785 7.11258C41.1857 7.06187 41.1857 6.80181 41.0108 6.71854C40.8716 6.66782 40.9061 6.79527 40.8251 6.81996C40.6396 6.68732 40.4528 6.54687 40.2552 6.42724C40.0815 6.42724 40.0577 6.6041 39.9423 6.67431C39.8109 6.53945 39.6357 6.45582 39.4482 6.43842C39.2607 6.42103 39.0731 6.471 38.9191 6.57938C38.4546 6.42892 37.9545 6.42892 37.4901 6.57938C36.7702 6.34399 36.142 6.6106 35.271 6.47796C35.2127 6.52867 35.2127 6.6431 35.1318 6.67431C35.0152 6.66782 35.0152 6.51566 34.9105 6.47796C34.864 6.50917 34.864 6.5911 34.7832 6.57938C33.731 6.45145 32.6656 6.48345 31.623 6.67431C31.4826 6.71202 31.529 6.54687 31.4481 6.52856C31.2968 6.48304 31.3778 6.68721 31.3089 6.71832C31.2042 6.42702 30.7044 6.64808 30.4605 6.42702C30.2392 6.48293 30.1583 6.6741 29.9727 6.76903C29.9946 6.67083 29.9825 6.56807 29.9381 6.47774C29.3682 6.83275 28.9148 6.34378 28.4151 6.76903C28.3569 6.66109 28.2415 6.61037 28.2879 6.38151C28.1022 6.54016 27.8571 6.50895 27.6132 6.67409C27.5323 6.64288 27.2884 6.26707 27.2646 6.62338C27.1373 6.61037 27.1373 6.47122 27.0446 6.42702C26.3937 6.9537 25.7774 6.31256 25.3015 6.91597C25.1385 6.54016 24.6625 6.56615 24.1973 6.67409V6.47774C23.8951 6.71832 23.6631 6.47773 23.2561 6.57916C22.9895 6.64288 22.8611 7.02911 22.641 7.06165C22.5244 7.07463 22.3852 6.88998 22.1532 6.81963C21.9556 6.76243 21.8152 6.86386 21.7926 6.62327C21.6657 6.71218 21.5452 6.80995 21.4321 6.91586C21.2121 6.68699 20.8741 6.9718 20.5957 6.71821C20.4208 6.79494 20.3743 7.0108 20.2351 7.11225C20.2934 6.86385 20.0959 6.90288 20.0614 6.76892C19.3868 6.81963 18.8644 6.68699 18.3647 7.01093C17.9697 6.95373 17.7841 7.17611 17.5163 6.81977C17.3069 7.02914 16.9238 6.6104 16.8072 7.01093C16.5049 6.78856 16.0171 7.04867 15.7851 6.71835C15.7268 6.73784 15.7506 6.84579 15.7387 6.916C15.6183 6.85227 15.4812 6.8272 15.346 6.84418C15.2108 6.86117 15.0841 6.91939 14.9832 7.01093C14.8559 6.99144 14.8785 6.80156 14.7632 6.76892C14.3324 6.90937 14.0766 6.62976 13.9148 7.06154C13.3872 6.95541 12.8473 6.92346 12.3109 6.9666C12.1717 7.0108 12.23 6.83916 12.1372 6.81963C12.0206 6.86386 12.0325 7.05502 11.9159 7.11225C11.7184 7.06153 11.672 6.86385 11.6018 6.67398C11.5327 6.84565 11.3935 6.68699 11.428 6.47762C11.0675 6.55306 10.9985 6.4009 10.6261 6.47762C10.5916 6.41888 10.5734 6.35198 10.5734 6.28385C10.5734 6.21572 10.5916 6.14882 10.6261 6.09008C10.4061 6.05757 10.243 5.8235 10.0918 5.99517C10.068 5.89242 9.97525 5.8482 9.99904 5.70255C9.80153 5.91192 9.75513 5.72205 9.46361 5.84831C9.40714 5.75797 9.36425 5.65982 9.33632 5.55701C9.15666 5.53533 8.97444 5.55263 8.80207 5.60773C8.77828 5.34646 8.53437 5.34646 8.44155 5.16297C8.25594 5.09925 8.30234 5.30213 8.22154 5.35933C7.97645 5.1877 7.72181 5.35284 7.55876 5.11875C7.25654 5.25142 6.87339 5.27741 6.8853 5.74688C6.62953 5.47379 6.46648 6.04599 6.1297 5.99528V5.7974C6.03236 5.82932 5.94165 5.87871 5.86203 5.94316C5.76924 5.92496 5.86202 5.68308 5.78111 5.65187C5.45511 5.68308 5.38611 5.87424 5.37409 6.14084C4.82797 5.79751 4.56025 6.11483 4.03791 6.23578C3.863 5.97567 3.55006 5.87424 3.50367 5.4607C3.41085 5.50622 3.29427 5.51791 3.28236 5.65187C3.18954 5.63886 3.20145 5.52442 3.15497 5.4607C2.98014 5.4607 2.98015 5.65836 2.84093 5.70272C2.6779 5.67021 2.60891 5.53105 2.48042 5.4607C2.57393 5.21122 2.62149 4.94686 2.62081 4.68043C2.3412 4.76236 2.43399 5.25134 2.30669 5.50622C2.22578 5.44899 2.27217 5.25133 2.08538 5.30854C1.92356 5.27732 1.96988 5.4802 1.89976 5.55693C1.85336 5.55044 1.86526 5.46719 1.86526 5.40999C1.73675 5.42949 1.79506 5.66487 1.59754 5.60764C1.58655 5.40822 1.50909 5.21823 1.37753 5.06796C1.33714 5.09905 1.28807 5.11678 1.23714 5.11867C1.17996 5.14988 1.26092 5.24482 1.19073 5.35925C0.795703 5.22012 1.30734 4.94051 1.45843 4.82608C1.53934 4.22916 1.50486 3.81042 1.81895 3.4671C1.70238 3.37868 1.72616 3.14329 1.72616 2.92741C1.61775 2.83735 1.47887 2.79239 1.33825 2.80184C1.19762 2.81128 1.06601 2.8744 0.970612 2.97814C0.819492 2.45795 1.50486 2.6231 1.89986 2.63611C1.89986 2.77527 1.81895 2.83899 1.81895 2.97814C1.91177 3.14329 2.13184 3.181 2.16754 3.41638C2.36511 3.30844 2.53881 3.45409 2.66727 3.56214C3.00405 3.4295 2.64345 3.11219 2.79463 2.83258C2.66713 2.77426 2.5272 2.74837 2.38728 2.75722C2.24736 2.76608 2.1118 2.8094 1.99267 2.88332C2.02719 2.74416 1.93438 2.75588 1.94628 2.63622C2.47746 2.56033 3.01554 2.54506 3.55016 2.59071C4.09632 2.61672 4.71148 2.47107 5.1529 2.49577C5.80375 2.52179 6.39627 2.38783 7.02451 2.44506C7.41125 2.42653 7.79595 2.3778 8.17509 2.2993C8.4654 2.27328 8.76764 2.39424 9.06859 2.39424C9.53388 2.40073 9.9634 2.2798 10.4524 2.2993C12.2063 2.35653 14.054 2.05742 15.8781 2.14713C17.0405 2.20956 18.2257 2.00668 19.3869 2.05088C20.6422 2.10159 21.8856 1.91175 23.129 1.95594C23.8024 1.98196 24.4069 1.848 25.0339 1.90523C25.6158 1.96246 26.15 1.7713 26.777 1.8103C27.2522 1.7876 27.7256 1.73855 28.1953 1.66336C28.5082 1.65816 28.8224 1.77779 29.1246 1.76608C29.4494 1.74658 29.7409 1.58792 30.0193 1.56842C30.3335 1.55021 30.6345 1.67636 30.914 1.66336C31.2282 1.65164 31.4947 1.5047 31.7968 1.46697C32.0221 1.47159 32.2469 1.48853 32.4703 1.51771C33.1568 1.5242 33.9004 1.27061 34.7833 1.22639C37.2117 1.10538 39.8377 1.26412 42.5221 1.13013C45.0417 1.00398 47.5662 1.00398 50.0859 1.13013C50.5047 1.15615 51.2947 1.14966 51.9099 1.18084C54.3848 1.30185 57 1.24456 59.5213 1.37203C62.8773 1.4297 66.2336 1.28334 69.5718 0.933771C71.9884 0.768625 74.3598 0.806328 76.8228 0.641154C78.2504 0.439925 79.6924 0.359446 81.1336 0.400572C81.3192 0.418778 81.7261 0.431786 82.0283 0.451312C89.0698 0.806328 96.3207 0.425296 103.466 0.79332C107.766 1.01058 111.96 0.953269 116.375 1.18084C120.463 1.40329 124.559 1.40329 128.646 1.18084C129.203 1.14966 129.727 1.0105 130.295 0.933771C131.604 0.894932 132.913 0.960594 134.211 1.13013C135.873 1.21338 137.593 1.05472 139.15 1.13013C147.377 1.55019 155.742 1.0352 163.748 0.933771C164.479 0.921724 165.209 0.970477 165.932 1.07953C166.712 0.95688 167.504 0.925023 168.292 0.984592C169.86 0.940369 171.579 0.940371 173.265 0.793431C174.009 0.724512 174.88 0.793431 175.716 0.793431C176.983 0.793431 177.935 0.788233 179.051 0.838946C179.086 1.50478 178.32 1.44235 177.715 1.51779C177.528 1.5555 177.75 1.42286 177.633 1.42286C177.471 1.42935 177.633 1.51127 177.494 1.56861C176.96 1.49318 176.75 1.99387 176.343 2.00685C175.78 2.05652 175.213 2.07129 174.648 2.05107C174.554 2.0901 174.741 2.20324 174.741 2.29947C174.845 2.28646 175.263 2.1473 175.136 2.34369C175.449 2.34369 175.6 2.18503 175.891 2.34369C175.624 2.85216 175.136 2.53345 174.519 2.68699C174.485 2.90807 174.554 2.86385 174.473 3.12396C174.322 3.04203 174.404 2.70519 174.206 2.68699C173.207 2.86385 172.3 2.47113 171.266 2.73773C171.195 2.75123 171.127 2.77962 171.067 2.82106C171.007 2.8625 170.956 2.91607 170.918 2.97831C170.859 3.18768 171.127 3.03552 171.091 3.22019C171.01 3.28332 170.95 3.36938 170.918 3.46726C170.732 3.28391 170.813 2.82615 170.557 2.73773C170.116 2.85216 169.802 2.67398 169.442 2.92749C169.453 2.83907 169.396 2.82606 169.396 2.73773C169.256 2.75593 169.267 2.95359 169.094 2.92749C169.094 2.89083 169.086 2.85459 169.07 2.82165C169.054 2.78871 169.03 2.75998 169.001 2.73773C168.872 2.93409 168.675 2.80013 168.512 3.07325C168.477 2.98483 168.455 2.88349 168.373 2.83266C168.21 2.94061 168.082 2.88989 168.024 3.17599C167.919 3.16298 168.002 2.96533 167.978 2.8834C167.885 2.9029 167.897 3.01604 167.758 2.97834C167.699 3.2137 167.885 3.33984 167.804 3.46729C167.701 3.34284 167.651 3.18338 167.664 3.02253C166.839 2.9081 165.968 3.16298 164.991 2.97834C164.705 3.57582 164.513 4.21412 164.422 4.87044C164.213 4.84569 164.096 4.90944 164.062 5.06809C163.965 4.65013 163.981 4.21378 164.108 3.80407C164.306 3.68306 163.935 4.07064 164.108 4.24231C164.33 3.9185 164.411 3.39702 164.725 3.32159C164.725 3.18114 164.654 3.11221 164.503 3.12393C164.306 3.18113 164.283 3.44903 164.237 3.56217C164.175 3.44339 164.146 3.30977 164.155 3.17594C163.528 3.51797 162.575 2.69868 162.458 3.75347C162.354 3.87447 162.377 3.68326 162.238 3.70927C162.181 3.75711 162.136 3.81637 162.104 3.88316C162.072 3.94996 162.054 4.02276 162.052 4.0968C161.912 4.02007 161.889 4.10851 161.704 4.0968C161.605 3.95101 161.545 3.78288 161.529 3.60782C161.575 3.61953 161.553 3.70927 161.611 3.70927C161.726 3.63903 161.587 3.45436 161.564 3.36594C161.46 3.37895 161.633 3.44916 161.564 3.5623C161.47 3.58832 161.506 3.46737 161.436 3.46737C161.099 3.70938 161.285 4.23595 161.075 4.58577C160.843 4.42582 161.029 3.53109 160.902 3.32172C160.854 3.34423 160.812 3.3771 160.779 3.41792C160.746 3.45873 160.722 3.50646 160.71 3.55759C160.698 3.60872 160.697 3.66197 160.708 3.71342C160.719 3.76487 160.741 3.81322 160.773 3.85492C160.809 4.00068 160.67 3.93685 160.588 3.94986C160.611 4.57925 160.275 4.56627 160.239 5.06823C160.077 4.6872 160.158 4.29316 160.007 3.94986C159.729 3.96286 159.937 4.50904 159.705 4.58577C159.786 4.46477 159.705 4.16571 159.832 4.0968C159.751 3.97579 159.483 4.06429 159.483 4.19173C159.426 4.02007 159.403 3.81719 159.217 3.80421C158.985 3.96935 159.193 4.30616 158.949 4.4388C158.624 4.35039 158.787 4.01358 158.81 3.70927C158.705 3.55711 158.485 3.5441 158.369 3.41666C157.73 3.63903 156.545 3.33473 155.882 3.60782C155.813 3.58183 155.789 3.5051 155.789 3.41666C155.591 3.66505 155.08 3.2709 154.894 3.65853C154.801 3.64555 154.882 3.44267 154.801 3.41666C154.36 3.45436 154.092 3.56242 154.231 4.04479C154.092 4.0968 154.151 3.93685 154.139 3.85503C153.604 3.91223 153.558 4.51564 153.036 4.58588C152.931 4.59757 153.012 4.79525 152.942 4.82646C152.722 4.78876 152.977 4.22955 152.756 4.19184C152.617 4.26205 152.547 4.41422 152.454 4.53385C152.327 4.45192 152.478 4.27377 152.5 4.19184C152.385 4.18535 152.361 4.1021 152.315 4.24255C152.222 4.28678 152.385 3.99416 152.268 4.14762C152.164 4.05136 152.292 3.8173 152.315 3.70938C152.49 3.75358 152.71 3.80432 152.756 3.60793C152.651 3.32191 152.5 3.60793 152.361 3.60793C152.105 3.61313 151.908 3.33484 151.466 3.46748C151.42 3.474 151.432 3.55073 151.432 3.60793C151.164 3.1879 150.757 3.61313 150.583 3.94997C150.467 3.96297 150.549 3.7602 150.41 3.80421C150.34 3.8484 150.34 3.96286 150.316 4.04479C150.496 4.29549 150.624 4.57991 150.692 4.88109C150.759 5.18227 150.766 5.49404 150.711 5.79779C150.618 5.73407 150.513 5.5819 150.676 5.50649C150.537 5.41676 150.583 5.68336 150.362 5.55721C150.281 5.23937 150.234 4.91366 150.223 4.58577C150.185 4.55621 150.138 4.54018 150.09 4.54018C150.041 4.54018 149.995 4.55621 149.956 4.58577C149.967 4.64168 150.049 4.62999 150.049 4.58577C150.142 4.87058 150.037 5.44277 150.176 5.74708C150.014 5.81729 149.945 6.10858 149.689 5.94344C149.572 6.12159 149.689 6.26724 149.608 6.42722H149.34C149.05 6.06439 149.072 5.19438 148.492 5.30881C148.376 5.44926 148.364 5.68985 148.225 5.79779C148.12 5.80428 148.131 5.5624 148.085 5.8485C147.911 5.86151 148.109 5.46098 147.865 5.55721C147.929 5.98296 148.018 6.40459 148.131 6.81994C147.899 6.6678 147.736 6.73152 147.551 6.52864C147.47 6.89666 147.772 6.84595 147.736 7.15677C147.411 7.32178 147.458 6.90318 147.249 7.11255C146.993 6.78872 146.958 6.22954 146.622 5.99547C146.61 5.8303 146.68 5.56892 146.494 5.60792C146.331 6.02666 146.551 6.21653 146.575 6.62358C146.249 6.50914 146.098 6.20484 145.866 5.99547C145.703 6.1346 145.994 6.47793 145.739 6.47793C145.791 6.51823 145.834 6.5699 145.865 6.62911C145.895 6.68832 145.911 6.75354 145.912 6.81994C145.739 6.725 145.668 6.50917 145.505 6.3817C145.378 6.4012 145.239 6.40769 145.204 6.52864C145.018 6.42721 144.995 6.17233 144.751 6.14112C144.751 6.00716 144.739 5.86151 144.797 5.79779C144.751 5.65203 144.762 5.97594 144.623 5.89272C144.471 5.79779 144.471 5.5442 144.449 5.30881C144.32 5.22689 144.356 5.5247 144.31 5.35953C144.205 5.50649 144.449 5.64554 144.263 5.79779C144.088 5.72758 144.076 5.22689 143.821 5.41027C143.554 5.20739 143.728 5.02271 143.426 4.82635C143.67 4.59746 143.264 4.35039 143.461 4.14751C143.369 3.96935 143.252 3.82371 143.159 3.65853C143.043 4.3439 143.286 4.61699 143.24 5.41038C143.127 5.48593 143.032 5.58655 142.963 5.70446C142.895 5.82238 142.854 5.95445 142.845 6.09049C142.799 5.89283 142.555 5.68347 142.752 5.5066C142.392 5.63275 142.601 4.78224 142.345 4.6301C142.218 4.66781 142.206 4.73153 142.264 4.87069C142.089 4.54686 142.333 3.87453 142.089 3.46748C141.938 3.49999 141.985 3.7406 141.776 3.70949C141.718 3.63925 141.579 3.65875 141.636 3.46748C141.114 3.44273 140.719 3.56242 140.126 3.5117C140.056 3.84851 140.405 4.20474 140.219 4.58588C140.138 4.58588 140.126 4.52216 140.033 4.53385C139.941 4.57287 140.056 4.84596 139.951 4.87069C139.51 4.69383 139.417 4.29316 139.546 3.70938C139.778 3.67036 139.894 3.70286 140.033 3.65864C139.836 3.37263 139.197 3.55073 138.883 3.56239C139.065 4.09401 139.097 4.66534 138.976 5.21396C138.756 5.20095 138.778 4.94087 138.615 4.87066C138.524 4.91841 138.421 4.93958 138.318 4.93176C138.216 4.92395 138.117 4.88745 138.034 4.82644C138.093 4.53382 137.895 4.52213 137.907 4.29324C137.994 4.26917 138.071 4.21814 138.127 4.14748C138.174 3.91861 138.012 3.75996 138.127 3.60779C137.918 3.626 137.871 3.67022 137.674 3.60779C137.667 3.80465 137.733 3.99705 137.861 4.14748C137.698 4.17223 137.303 3.87439 137.419 3.60779C136.794 3.55686 136.164 3.59099 135.548 3.70925C135.537 3.84189 135.618 3.80418 135.548 3.90561C135.479 3.8926 135.537 3.75985 135.455 3.75344C135.199 3.76645 135.386 4.10848 135.362 4.29313C135.525 4.30614 135.432 4.03305 135.501 3.94983C135.745 4.10197 135.838 3.9121 136.035 3.90561C136.14 4.22292 135.803 4.52851 135.989 4.82633C135.92 4.93427 135.884 4.58575 135.722 4.62997C135.652 4.89654 135.42 4.97198 135.327 5.21385C135.373 5.50534 135.356 5.80309 135.278 6.08753C135.199 6.37196 135.062 6.63663 134.874 6.86413C134.793 6.79521 134.677 6.75619 134.699 6.57932C134.781 6.48959 134.909 6.42719 134.967 6.57932C135.118 6.34394 134.886 6.38816 134.874 6.28022C134.967 6.19829 134.909 6.19829 135.06 6.23603C134.991 5.86148 135.396 5.48694 135.235 5.02269C135.094 4.99794 135.199 5.24507 135.106 5.26456C134.909 5.27757 135.001 4.97855 134.793 5.02269V4.62997C134.618 4.64166 134.34 4.8016 134.119 4.58575C133.999 4.80727 133.93 5.05238 133.916 5.30366C133.902 5.55494 133.944 5.80622 134.038 6.03964C133.991 6.26721 133.758 6.29323 133.816 6.62355C133.643 6.5156 133.804 6.33096 133.77 6.09035C133.701 5.97206 133.588 5.8853 133.456 5.84834C133.363 5.4101 133.619 5.34115 133.584 4.97184C134.084 4.94709 133.677 4.19806 133.898 3.85476C133.863 3.7533 133.584 3.80404 133.55 3.85476C133.492 4.0199 133.375 4.12784 133.41 4.38793C133.155 4.25529 132.899 4.45817 132.922 3.90547C132.648 4.34218 132.495 4.84408 132.48 5.35936C132.353 5.28395 132.458 5.20722 132.387 5.11878C132.224 5.06807 132.317 5.30216 132.166 5.26454C132.214 5.09939 132.097 5.10588 131.981 5.11878C131.807 5.25145 131.912 5.42954 131.9 5.70269C131.978 5.76813 132.069 5.81764 132.166 5.84845C132.178 6.12805 132.051 6.38165 132.166 6.62352C131.944 6.66551 131.732 6.747 131.539 6.8641C131.527 7.20091 131.76 7.4363 131.678 7.69638C131.621 7.6834 131.597 7.7029 131.586 7.7406C131.098 7.52474 131.609 6.8459 131.273 6.33093C131.121 6.44537 131.098 6.68724 131.051 6.91611C130.912 6.76268 130.807 6.87711 130.656 6.96685C130.586 7.20091 130.842 7.08648 130.784 7.30237C130.586 7.35957 130.668 7.11261 130.61 7.01104C130.401 6.96685 130.145 6.70545 129.935 6.71846C129.974 6.24473 129.931 5.7678 129.808 5.30876C129.62 5.80453 129.545 6.33575 129.588 6.8641C129.378 6.69373 129.401 6.26199 129.367 5.89267C129.471 5.79773 129.413 5.90568 129.494 5.94338C129.706 5.40278 129.798 4.82214 129.762 4.24239C129.157 4.39455 129.634 5.55066 129.006 5.74702C128.948 5.94338 129.099 5.89916 129.099 6.03961C128.925 6.12805 129.03 6.52209 128.739 6.47787C128.762 6.36993 128.832 6.22948 128.739 6.14106C128.647 6.12805 128.716 6.3127 128.693 6.38165C128.635 6.36993 128.588 5.98241 128.564 6.23589C128.472 6.14744 128.333 5.82364 128.564 5.79762C128.309 5.47382 128.472 4.90933 128.425 4.38793C127.867 4.54658 128.355 5.56224 128.03 5.94327C127.906 5.68632 127.843 5.40421 127.845 5.11878H127.623C127.635 5.63248 127.903 6.19815 127.577 6.52847C127.472 6.41404 127.531 6.35681 127.542 6.18515C127.496 6.10842 127.472 6.19815 127.357 6.14095C127.366 6.02145 127.347 5.9014 127.3 5.79094C127.254 5.68049 127.181 5.58287 127.089 5.50633C126.694 5.52453 126.857 6.15916 126.694 6.42705C126.497 6.18504 126.555 5.89902 126.253 5.84834C126.28 5.42516 126.249 5.00018 126.16 4.58561C125.718 4.84569 125.985 5.79762 125.846 6.23589C125.799 6.22288 125.822 6.14095 125.753 6.14095C125.602 6.24887 125.858 6.31259 125.799 6.47776C125.765 6.52847 125.636 6.49597 125.672 6.62352C125.473 6.236 125.312 5.81074 125.137 5.41021C124.975 5.52464 124.951 5.79124 124.87 5.99542C124.765 5.97589 124.788 5.82375 124.649 5.84845C124.683 6.10333 124.532 6.42064 124.602 6.71846C124.382 6.5221 124.37 6.76917 124.242 6.91611C124.068 6.78218 124.056 6.46486 124.022 6.18526C123.847 6.19178 123.859 6.40114 123.847 6.5793C123.685 6.48304 123.615 6.65473 123.627 6.8641C123.534 6.73795 123.313 6.75096 123.266 6.5793C123.139 6.47787 123.022 6.73795 122.952 6.8641C122.686 6.67434 122.627 6.2555 122.511 5.89267C122.426 5.99298 122.363 6.1096 122.325 6.2353C122.287 6.361 122.276 6.49313 122.291 6.62352C122.202 6.48004 122.078 6.36181 121.93 6.28019C121.767 6.25544 121.803 6.43236 121.663 6.42716C121.779 6.22299 121.582 5.68979 121.175 5.74702C121.106 5.45943 121.001 5.18187 120.862 4.92123C120.761 5.00223 120.683 5.10828 120.636 5.22878C120.589 5.34927 120.575 5.47999 120.594 5.60786C120.513 5.53765 120.316 5.42319 120.326 5.65209C120.048 5.60137 120.175 5.22031 120.373 5.30876C120.106 5.25804 120.048 5.07989 119.665 5.06818C119.524 5.29055 119.548 5.68971 119.304 5.79773C119.274 5.54871 119.215 5.30396 119.129 5.06818C119.065 5.09482 118.995 5.10462 118.926 5.09665C118.857 5.08869 118.791 5.06322 118.734 5.02266C118.607 5.09492 118.502 5.2006 118.43 5.32828C118.359 5.45595 118.324 5.60076 118.329 5.74702C118.154 5.6833 118.095 5.77304 117.968 5.7028C117.98 5.47393 118.107 5.38549 118.061 5.11889C117.573 4.76907 117.387 5.3985 117.259 5.84845C117.166 5.85497 117.236 5.67029 117.213 5.60786C117.132 5.65209 117.144 5.81723 116.992 5.79762C116.91 5.63248 117.062 5.37889 117.085 5.163C117.077 5.1336 117.058 5.10811 117.033 5.09082C117.007 5.07353 116.977 5.0655 116.946 5.06807C116.749 5.06807 116.876 5.43609 116.725 5.50633C116.632 5.46081 116.713 5.23324 116.597 5.21371C116.364 5.17601 116.411 5.4296 116.155 5.35947C115.911 5.53114 116.12 6.20478 115.749 6.236C115.562 5.86794 115.656 5.48042 115.528 5.06818C115.319 5.20708 115.163 5.41299 115.086 5.65209C115.016 5.53765 114.993 5.56235 114.854 5.60786C114.854 5.4544 114.959 5.41021 114.993 5.30876C114.993 5.21382 114.877 5.25155 114.901 5.119C114.691 5.119 114.61 5.25167 114.633 5.50655C114.482 5.55077 114.366 5.3661 114.319 5.55726C114.296 5.22694 114.006 5.4233 113.924 5.119C113.785 5.13071 113.855 5.35958 113.657 5.30876C113.645 5.23335 113.704 5.22683 113.704 5.163C112.353 5.08294 110.999 5.08294 109.649 5.163C109.439 5.21371 109.207 5.07978 109.032 5.11878C108.777 5.16952 108.452 4.93413 107.871 5.02252C107.743 5.02252 107.72 5.14353 107.603 5.16297C107.464 5.20719 107.511 5.04197 107.429 5.02252C107.081 4.9341 106.836 5.31514 106.721 5.06804C106.662 5.07975 106.674 5.15648 106.674 5.2138C106.535 5.2138 106.616 4.98493 106.535 4.92121C105.631 4.95288 104.726 4.92115 103.827 4.82627C103.56 4.81326 103.293 4.9277 103.025 4.92121C102.096 4.903 100.922 4.48943 100.179 5.16308C100.086 4.88999 99.5625 5.2073 99.691 5.06815C99.3644 4.92739 99.2478 5.42286 98.9348 5.46051ZM3.46807 2.78165C3.37528 2.8064 3.18965 2.71793 3.23608 2.8831C3.28247 2.93381 3.46807 2.9273 3.46807 2.78165ZM128.03 4.92091C127.913 4.90919 127.879 4.99112 127.891 5.11856C128.006 5.13027 128.042 5.04835 128.03 4.92091ZM135.281 4.82597C135.315 4.79476 135.374 4.55288 135.281 4.53335C135.281 4.6608 135.094 4.76225 135.281 4.82597ZM149.515 5.65176C149.492 5.38049 149.382 5.12394 149.201 4.92091C149.131 4.93391 149.096 5.00413 149.12 5.11856C149.398 5.12499 149.259 5.61405 149.515 5.65176ZM149.91 4.48264C150.2 4.34351 150.293 3.76609 149.91 3.65815C149.956 4.00667 149.828 4.22256 149.91 4.48264ZM153.163 4.00018C153.07 3.98847 153.139 4.17185 153.117 4.24206C153.256 4.3123 153.337 3.96248 153.163 4.00018ZM153.431 3.80382C153.5 3.89224 153.604 3.79081 153.604 3.65807C153.512 3.55664 153.431 3.66978 153.337 3.7088V3.94939C153.419 3.95596 153.441 3.90525 153.431 3.80382ZM161.877 3.56181C161.796 3.57482 161.784 3.50461 161.704 3.5111C161.726 3.58134 161.657 3.76598 161.75 3.75297C161.714 3.60094 161.865 3.65804 161.877 3.56181Z" fill="#334731"/>
</svg>
