<svg width="16" height="17" viewBox="0 0 16 17" fill="none" xmlns="http://www.w3.org/2000/svg">
<g id="xmark">
<path id="Primary" d="M13.6449 4.43998C14.1134 3.97145 14.1134 3.21055 13.6449 2.74202C13.1763 2.27349 12.4154 2.27349 11.9469 2.74202L8 6.69267L4.04935 2.74577C3.58082 2.27724 2.81993 2.27724 2.3514 2.74577C1.88287 3.2143 1.88287 3.97519 2.3514 4.44372L6.30205 8.39062L2.35515 12.3413C1.88662 12.8098 1.88662 13.5707 2.35515 14.0392C2.82368 14.5078 3.58457 14.5078 4.0531 14.0392L8 10.0886L11.9506 14.0355C12.4192 14.504 13.1801 14.504 13.6486 14.0355C14.1171 13.5669 14.1171 12.8061 13.6486 12.3375L9.69795 8.39062L13.6449 4.43998Z" fill="#334731"/>
</g>
</svg>
